<svg width="1160" height="133" viewBox="0 0 1160 133" fill="none" xmlns="http://www.w3.org/2000/svg">
<path d="M1159.39 33.4072C1121.51 72.1546 1067.25 85.0867 1009.26 87.1035C951.098 89.1267 884.259 80.2641 817.016 70.7529C748.92 61.1211 679.889 50.7345 614.265 48.4863C548.626 46.2376 488.847 52.2824 439.132 73.9521C341.055 116.702 276.537 134.947 218.73 132.146C161.33 129.365 113.397 105.793 50.4398 74.1631C49.8068 74.0243 49.1778 73.8868 48.5579 73.749C47.0355 73.4107 45.2029 72.9951 43.973 72.5156L43.9085 72.4902L43.845 72.4639C43.1236 72.1603 42.4403 71.8338 41.3978 71.3262C37.4113 70.403 29.296 68.5926 21.1741 66.3145C11.4063 63.5746 8.63557 61.6934 7.4544 60.9316C7.2568 60.8042 6.81029 60.5128 6.38311 60.1113C6.25303 59.9891 5.59394 59.3841 5.14483 58.3848C4.89785 57.8351 4.52401 56.7484 4.75518 55.373C5.01598 53.8219 5.91156 52.6726 6.8792 51.9854C8.33374 50.9524 9.84549 51.0134 9.96123 51.0137C10.4006 51.0143 10.7594 51.0679 10.9378 51.0977C11.3224 51.1618 11.6797 51.2567 11.9163 51.3232C12.8589 51.5884 14.3069 52.1064 15.7776 52.6475C18.545 53.6655 21.9146 54.9586 24.7142 55.9541C23.6891 55.414 22.5813 54.8614 21.4056 54.2998C18.6001 52.9597 15.5774 51.6397 12.5882 50.3311C9.64773 49.0438 6.70165 47.7514 4.23077 46.5283C3.08905 45.9632 2.11748 45.1462 1.39678 44.1914C0.760028 43.3476 -0.066099 41.8697 0.00420296 39.9746L0.0266639 39.6094C0.185861 37.7851 1.03872 35.9456 2.79229 34.7012C4.38245 33.5729 6.12109 33.3686 7.23565 33.3496C9.4656 33.3116 11.9161 33.9996 13.8597 34.6631C15.7905 35.3222 17.8181 36.1774 19.6517 37.0107C18.5535 36.3553 17.4303 35.6832 16.2923 34.9912C12.4118 32.6318 9.72054 30.2685 7.77959 27.623L7.53936 27.2734C6.40628 25.5118 6.27911 23.5272 6.78448 21.8516C7.1949 20.4909 7.96235 19.4733 8.63409 18.792L8.91534 18.5205L9.23565 18.2402C10.7587 16.9804 12.6097 16.4005 14.2151 16.2559L14.555 16.2314L14.8021 16.2217C17.3436 16.1658 19.6424 17.3295 21.1517 18.2305C22.9127 19.2818 24.7217 20.6827 26.4173 22.1084C29.6081 24.7914 33.6091 28.6526 36.1106 30.8613C36.1631 30.9076 36.2166 30.9519 36.2689 30.9971C34.6045 28.885 32.5415 26.7228 30.3099 24.6152C28.1117 22.5393 26.0276 20.7589 24.2894 19.2256C23.46 18.494 22.6451 17.7616 22.0042 17.1172C21.6857 16.7969 21.3197 16.4091 20.9896 15.9883C20.7591 15.6945 20.1066 14.8527 19.7845 13.6738L19.6731 13.2148C19.1811 10.9282 19.6787 8.79906 19.9749 7.72559L20.0608 7.42969C20.5228 5.93106 21.6515 3.49157 24.43 2.40234L24.7239 2.29492L25.0999 2.17383C28.975 1.02194 32.4684 2.712 34.7513 4.31348C37.2272 6.05051 39.5385 8.53951 41.5413 10.998C43.2433 13.0874 45.0055 15.5414 46.6273 17.875C46.4657 13.8218 47.3804 10.1054 48.3958 7.18164L48.5159 6.85938C49.7364 3.81386 52.6185 2.63798 54.6321 2.44043L55.0355 2.41309L55.5013 2.41016C57.7995 2.45878 59.6543 3.47198 60.9866 4.64551C62.3369 5.83493 63.3308 7.32937 64.0745 8.68652C65.5547 11.3877 66.7126 14.8194 67.6673 17.7881C69.1024 22.2508 69.3198 27.2056 69.8782 31.4082C69.8878 31.4802 69.8979 31.5517 69.9075 31.623L70.3743 30.6963C135.83 63.5888 175.005 82.1805 221.043 84.4111C267.137 86.6443 323.006 72.4362 420.035 30.1426C479.173 4.3653 547.17 -1.63096 615.901 0.723633C684.646 3.07878 756.579 13.9393 823.709 23.4346C891.693 33.0506 954.345 41.1952 1007.6 39.3428C1061.04 37.4839 1100.14 25.6575 1125.22 0L1159.39 33.4072Z" fill="#C6C3E1"/>
</svg>
