<svg width="1160" height="133" viewBox="0 0 1160 133" fill="none" xmlns="http://www.w3.org/2000/svg">
<path d="M720.259 58.4729C818.335 15.7228 882.853 -2.52222 940.66 0.278529C998.059 3.05956 1045.99 26.6307 1108.95 58.26C1109.58 58.3991 1110.21 58.537 1110.83 58.675C1112.35 59.0133 1114.19 59.4289 1115.42 59.9084L1115.48 59.9338L1115.55 59.9602C1116.27 60.2637 1116.95 60.5903 1117.99 61.0979C1121.98 62.0211 1130.09 63.8315 1138.22 66.1096C1147.98 68.8495 1150.76 70.7306 1151.94 71.4924C1152.13 71.6199 1152.58 71.9114 1153.01 72.3127C1153.14 72.4352 1153.8 73.0403 1154.25 74.0393C1154.49 74.5889 1154.87 75.6757 1154.63 77.051C1154.37 78.6023 1153.48 79.7514 1152.51 80.4387C1151.06 81.4724 1149.54 81.4105 1149.43 81.4104C1148.99 81.4097 1148.63 81.3561 1148.45 81.3264C1148.07 81.2622 1147.71 81.1673 1147.47 81.1008C1146.53 80.8357 1145.08 80.3177 1143.61 79.7766C1140.85 78.7585 1137.48 77.4654 1134.68 76.4699C1135.7 77.01 1136.81 77.5636 1137.98 78.1252C1140.79 79.4653 1143.81 80.7844 1146.8 82.093C1149.74 83.3804 1152.69 84.6735 1155.16 85.8967C1156.3 86.4618 1157.27 87.2779 1157.99 88.2326C1158.63 89.0763 1159.46 90.5542 1159.39 92.4494L1159.36 92.8147C1159.2 94.639 1158.35 96.4784 1156.6 97.7229C1155.01 98.851 1153.27 99.0554 1152.16 99.0744C1149.93 99.1124 1147.47 98.4244 1145.53 97.7609C1143.6 97.1019 1141.57 96.2465 1139.74 95.4133C1140.84 96.0688 1141.96 96.7408 1143.1 97.4328C1146.98 99.7923 1149.67 102.156 1151.61 104.801L1151.85 105.151C1152.98 106.912 1153.11 108.897 1152.61 110.572C1152.2 111.933 1151.43 112.951 1150.76 113.632L1150.48 113.904L1150.16 114.184C1148.63 115.444 1146.78 116.024 1145.18 116.168L1144.83 116.194L1144.59 116.202C1142.05 116.258 1139.75 115.095 1138.24 114.194C1136.48 113.142 1134.67 111.741 1132.97 110.316C1129.78 107.633 1125.78 103.772 1123.28 101.564C1123.23 101.517 1123.17 101.473 1123.12 101.428C1124.79 103.54 1126.85 105.702 1129.08 107.81C1131.28 109.886 1133.36 111.665 1135.1 113.198C1135.93 113.93 1136.75 114.662 1137.39 115.307C1137.71 115.627 1138.07 116.015 1138.4 116.436C1138.63 116.729 1139.28 117.571 1139.61 118.75L1139.72 119.209C1140.21 121.496 1139.71 123.625 1139.42 124.698L1139.33 124.994C1138.87 126.493 1137.74 128.932 1134.96 130.022L1134.67 130.13L1134.29 130.25C1130.41 131.402 1126.92 129.712 1124.64 128.111C1122.16 126.374 1119.85 123.884 1117.85 121.426C1116.15 119.337 1114.39 116.883 1112.76 114.549C1112.93 118.602 1112.01 122.319 1111 125.242L1110.87 125.565C1109.65 128.61 1106.77 129.786 1104.76 129.984L1104.35 130.012L1103.89 130.014C1101.59 129.965 1099.74 128.952 1098.4 127.779C1097.05 126.589 1096.06 125.095 1095.32 123.738C1093.84 121.036 1092.68 117.605 1091.72 114.636C1090.29 110.173 1090.07 105.218 1089.51 101.016C1089.5 100.944 1089.49 100.872 1089.48 100.801L1089.02 101.728C1023.56 68.8352 984.386 50.2435 938.348 48.0129C892.254 45.7797 836.385 59.9888 739.355 102.282C680.217 128.06 612.22 134.055 543.489 131.7C474.743 129.345 402.811 118.485 335.681 108.989C267.697 99.3735 205.046 91.2288 151.788 93.0813C98.3465 94.9401 59.2559 106.767 34.1738 132.424L0 99.0168C37.8783 60.2697 92.1455 47.3373 150.127 45.3205C208.293 43.2974 275.132 52.16 342.374 61.6711C410.47 71.303 479.502 81.6895 545.126 83.9377C610.765 86.1864 670.544 80.1426 720.259 58.4729Z" fill="#C6C3E1"/>
</svg>
