<svg width="2687" height="573" viewBox="0 0 2687 573" fill="none" xmlns="http://www.w3.org/2000/svg">
<path d="M2686.67 453C2648.8 491.748 2504.51 525.608 2446.52 527.625C2388.36 529.648 2321.52 520.786 2254.28 511.275C2186.18 501.643 2117.15 491.256 2051.53 489.008C1985.89 486.759 1926.11 492.804 1876.39 514.474C1778.32 557.224 1713.8 575.469 1655.99 572.668C1598.59 569.887 1550.66 546.315 1487.7 514.685C1487.07 514.546 1486.44 514.408 1485.82 514.271C1484.3 513.932 1482.46 513.517 1481.23 513.037L1481.17 513.012L1481.11 512.986C1480.38 512.682 1479.7 512.355 1478.66 511.848C1474.67 510.925 1466.56 509.114 1458.43 506.836C1448.67 504.096 1445.9 502.215 1444.71 501.453C1444.52 501.326 1444.07 501.034 1443.64 500.633C1443.51 500.51 1442.85 499.905 1442.41 498.906C1442.16 498.357 1441.78 497.27 1442.02 495.895C1442.28 494.344 1443.17 493.194 1444.14 492.507C1445.59 491.475 1447.1 491.535 1447.22 491.535C1447.66 491.536 1448.02 491.59 1448.2 491.619C1448.58 491.683 1448.94 491.778 1449.18 491.845C1450.12 492.11 1451.57 492.628 1453.04 493.169C1455.81 494.187 1459.18 495.48 1461.97 496.476C1460.95 495.936 1459.84 495.383 1458.67 494.822C1455.86 493.481 1452.84 492.161 1449.85 490.853C1446.91 489.566 1443.96 488.273 1441.49 487.05C1440.35 486.485 1439.38 485.668 1438.66 484.713C1438.02 483.869 1437.19 482.391 1437.26 480.496L1437.29 480.131C1437.45 478.307 1438.3 476.467 1440.05 475.223C1441.64 474.095 1443.38 473.89 1444.5 473.871C1446.73 473.833 1449.18 474.521 1451.12 475.185C1453.05 475.844 1455.08 476.699 1456.91 477.532C1455.81 476.877 1454.69 476.205 1453.55 475.513C1449.67 473.154 1446.98 470.79 1445.04 468.145L1444.8 467.795C1443.67 466.034 1443.54 464.049 1444.04 462.373C1444.46 461.013 1445.22 459.995 1445.89 459.314L1446.18 459.042L1446.5 458.762C1448.02 457.502 1449.87 456.922 1451.48 456.778L1451.82 456.753L1452.06 456.743C1454.6 456.687 1456.9 457.851 1458.41 458.752C1460.17 459.803 1461.98 461.204 1463.68 462.63C1466.87 465.313 1470.87 469.174 1473.37 471.383C1473.42 471.429 1473.48 471.474 1473.53 471.519C1471.87 469.407 1469.8 467.244 1467.57 465.137C1465.37 463.061 1463.29 461.281 1461.55 459.747C1460.72 459.016 1459.91 458.283 1459.26 457.639C1458.95 457.319 1458.58 456.931 1458.25 456.51C1458.02 456.216 1457.37 455.374 1457.04 454.196L1456.93 453.737C1456.44 451.45 1456.94 449.321 1457.24 448.247L1457.32 447.951C1457.78 446.453 1458.91 444.013 1461.69 442.924L1461.98 442.817L1462.36 442.696C1466.24 441.544 1469.73 443.234 1472.01 444.835C1474.49 446.572 1476.8 449.061 1478.8 451.52C1480.5 453.609 1482.27 456.063 1483.89 458.397C1483.73 454.344 1484.64 450.627 1485.66 447.703L1485.78 447.381C1487 444.336 1489.88 443.16 1491.89 442.962L1492.3 442.935L1492.76 442.932C1495.06 442.98 1496.91 443.994 1498.25 445.167C1499.6 446.357 1500.59 447.851 1501.33 449.208C1502.82 451.909 1503.97 455.341 1504.93 458.31C1506.36 462.772 1506.58 467.727 1507.14 471.93C1507.15 472.002 1507.16 472.074 1507.17 472.145L1507.63 471.218C1573.09 504.11 1612.27 522.702 1658.3 524.933C1704.4 527.166 1760.27 512.958 1857.3 470.664C1916.43 444.887 1984.43 438.891 2053.16 441.245C2121.91 443.6 2193.84 454.461 2260.97 463.956C2328.95 473.572 2391.61 481.717 2444.86 479.864C2498.3 478.006 2627.42 445.251 2652.5 419.593L2686.67 453Z" fill="#C6C3E1"/>
<path d="M857.433 58.4729C955.509 15.7228 1020.03 -2.52221 1077.83 0.278528C1135.23 3.05956 1183.16 26.6308 1246.12 58.26C1246.75 58.3991 1247.38 58.537 1248.01 58.675C1249.53 59.0133 1251.36 59.429 1252.59 59.9084L1252.66 59.9338L1252.72 59.9602C1253.44 60.2637 1254.12 60.5904 1255.17 61.0979C1259.15 62.021 1267.27 63.8315 1275.39 66.1096C1285.16 68.8494 1287.93 70.7306 1289.11 71.4924C1289.31 71.6199 1289.75 71.9115 1290.18 72.3127C1290.31 72.4352 1290.97 73.0405 1291.42 74.0393C1291.67 74.5888 1292.04 75.6759 1291.81 77.051C1291.55 78.6022 1290.65 79.7514 1289.68 80.4387C1288.23 81.4724 1286.72 81.4105 1286.6 81.4104C1286.16 81.4097 1285.81 81.3561 1285.63 81.3264C1285.24 81.2622 1284.89 81.1673 1284.65 81.1008C1283.71 80.8357 1282.26 80.3176 1280.79 79.7766C1278.02 78.7585 1274.65 77.4654 1271.85 76.4699C1272.88 77.01 1273.98 77.5636 1275.16 78.1252C1277.96 79.4653 1280.99 80.7844 1283.98 82.093C1286.92 83.3804 1289.86 84.6735 1292.33 85.8967C1293.48 86.4618 1294.45 87.278 1295.17 88.2326C1295.8 89.0762 1296.63 90.5544 1296.56 92.4494L1296.54 92.8147C1296.38 94.6389 1295.53 96.4784 1293.77 97.7229C1292.18 98.851 1290.44 99.0554 1289.33 99.0744C1287.1 99.1124 1284.65 98.4244 1282.7 97.7609C1280.77 97.1019 1278.75 96.2465 1276.91 95.4133C1278.01 96.0687 1279.13 96.7409 1280.27 97.4328C1284.15 99.7922 1286.84 102.156 1288.79 104.801L1289.02 105.151C1290.16 106.912 1290.29 108.897 1289.78 110.572C1289.37 111.933 1288.6 112.951 1287.93 113.632L1287.65 113.904L1287.33 114.184C1285.81 115.444 1283.96 116.024 1282.35 116.168L1282.01 116.194L1281.76 116.202C1279.22 116.258 1276.92 115.095 1275.41 114.194C1273.65 113.142 1271.84 111.741 1270.15 110.316C1266.96 107.633 1262.95 103.772 1260.45 101.564C1260.4 101.517 1260.35 101.473 1260.29 101.428C1261.96 103.54 1264.02 105.702 1266.25 107.81C1268.45 109.885 1270.54 111.665 1272.28 113.198C1273.1 113.93 1273.92 114.662 1274.56 115.307C1274.88 115.627 1275.24 116.015 1275.57 116.436C1275.8 116.729 1276.46 117.571 1276.78 118.75L1276.89 119.209C1277.38 121.496 1276.89 123.625 1276.59 124.698L1276.5 124.994C1276.04 126.493 1274.91 128.932 1272.13 130.022L1271.84 130.13L1271.46 130.25C1267.59 131.402 1264.1 129.712 1261.81 128.111C1259.34 126.374 1257.03 123.884 1255.02 121.426C1253.32 119.337 1251.56 116.883 1249.94 114.549C1250.1 118.602 1249.18 122.319 1248.17 125.242L1248.05 125.565C1246.83 128.61 1243.95 129.786 1241.93 129.984L1241.53 130.012L1241.06 130.014C1238.76 129.965 1236.91 128.952 1235.58 127.779C1234.23 126.589 1233.23 125.095 1232.49 123.738C1231.01 121.036 1229.85 117.605 1228.9 114.636C1227.46 110.173 1227.24 105.218 1226.69 101.016C1226.68 100.944 1226.66 100.872 1226.66 100.801L1226.19 101.728C1160.73 68.8352 1121.56 50.2435 1075.52 48.0129C1029.43 45.7797 973.559 59.9888 876.529 102.282C817.391 128.06 749.394 134.055 680.663 131.7C611.917 129.345 539.985 118.485 472.854 108.989C404.871 99.3735 342.219 91.2289 288.962 93.0813C192.174 96.4478 59.2559 175.343 34.1738 201L0 167.593C78.1738 93.0813 229.319 47.3373 287.301 45.3205C345.467 43.2974 412.305 52.16 479.548 61.6711C547.644 71.303 616.676 81.6895 682.3 83.9377C747.939 86.1864 807.718 80.1426 857.433 58.4729Z" fill="#C6C3E1"/>
</svg>
