<svg width="2460" height="573" viewBox="0 0 2460 573" fill="none" xmlns="http://www.w3.org/2000/svg">
<path d="M2459.48 473.929C2421.6 512.676 2367.33 525.608 2309.35 527.625C2251.18 529.648 2184.35 520.786 2117.1 511.275C2049.01 501.643 1979.98 491.256 1914.35 489.008C1848.71 486.759 1788.93 492.804 1739.22 514.474C1641.14 557.224 1576.62 575.469 1518.82 572.668C1461.42 569.887 1413.48 546.315 1350.53 514.685C1349.89 514.546 1349.26 514.408 1348.64 514.271C1347.12 513.932 1345.29 513.517 1344.06 513.037L1344 513.012L1343.93 512.986C1343.21 512.682 1342.53 512.355 1341.48 511.848C1337.5 510.925 1329.38 509.114 1321.26 506.836C1311.49 504.096 1308.72 502.215 1307.54 501.453C1307.34 501.326 1306.9 501.034 1306.47 500.633C1306.34 500.51 1305.68 499.905 1305.23 498.906C1304.98 498.357 1304.61 497.27 1304.84 495.895C1305.1 494.344 1306 493.194 1306.97 492.507C1308.42 491.475 1309.93 491.535 1310.05 491.535C1310.49 491.536 1310.85 491.59 1311.02 491.619C1311.41 491.683 1311.77 491.778 1312 491.845C1312.95 492.11 1314.39 492.628 1315.86 493.169C1318.63 494.187 1322 495.48 1324.8 496.476C1323.78 495.936 1322.67 495.383 1321.49 494.822C1318.69 493.481 1315.66 492.161 1312.67 490.853C1309.73 489.566 1306.79 488.273 1304.32 487.05C1303.18 486.485 1302.2 485.668 1301.48 484.713C1300.85 483.869 1300.02 482.391 1300.09 480.496L1300.11 480.131C1300.27 478.307 1301.13 476.467 1302.88 475.223C1304.47 474.095 1306.21 473.89 1307.32 473.871C1309.55 473.833 1312 474.521 1313.95 475.185C1315.88 475.844 1317.9 476.699 1319.74 477.532C1318.64 476.877 1317.52 476.205 1316.38 475.513C1312.5 473.154 1309.81 470.79 1307.87 468.145L1307.63 467.795C1306.49 466.034 1306.37 464.049 1306.87 462.373C1307.28 461.013 1308.05 459.995 1308.72 459.314L1309 459.042L1309.32 458.762C1310.85 457.502 1312.7 456.922 1314.3 456.778L1314.64 456.753L1314.89 456.743C1317.43 456.687 1319.73 457.851 1321.24 458.752C1323 459.803 1324.81 461.204 1326.5 462.63C1329.69 465.313 1333.7 469.174 1336.2 471.383C1336.25 471.429 1336.3 471.474 1336.36 471.519C1334.69 469.407 1332.63 467.244 1330.4 465.137C1328.2 463.061 1326.11 461.281 1324.38 459.747C1323.55 459.016 1322.73 458.283 1322.09 457.639C1321.77 457.319 1321.41 456.931 1321.08 456.51C1320.85 456.216 1320.19 455.374 1319.87 454.196L1319.76 453.737C1319.27 451.45 1319.77 449.321 1320.06 448.247L1320.15 447.951C1320.61 446.453 1321.74 444.013 1324.52 442.924L1324.81 442.817L1325.19 442.696C1329.06 441.544 1332.56 443.234 1334.84 444.835C1337.31 446.572 1339.63 449.061 1341.63 451.52C1343.33 453.609 1345.09 456.063 1346.71 458.397C1346.55 454.344 1347.47 450.627 1348.48 447.703L1348.6 447.381C1349.82 444.336 1352.71 443.16 1354.72 442.962L1355.12 442.935L1355.59 442.932C1357.89 442.98 1359.74 443.994 1361.07 445.167C1362.42 446.357 1363.42 447.851 1364.16 449.208C1365.64 451.909 1366.8 455.341 1367.75 458.31C1369.19 462.772 1369.41 467.727 1369.96 471.93C1369.97 472.002 1369.98 472.074 1369.99 472.145L1370.46 471.218C1435.92 504.11 1475.09 522.702 1521.13 524.933C1567.22 527.166 1623.09 512.958 1720.12 470.664C1779.26 444.887 1847.26 438.891 1915.99 441.245C1984.73 443.6 2056.67 454.461 2123.8 463.956C2191.78 473.572 2254.43 481.717 2307.69 479.864C2361.13 478.006 2400.22 466.179 2425.3 440.522L2459.48 473.929Z" fill="#C6C3E1"/>
<path d="M720.259 58.4729C818.335 15.7228 882.853 -2.52221 940.66 0.278528C998.059 3.05956 1045.99 26.6308 1108.95 58.26C1109.58 58.3991 1110.21 58.537 1110.83 58.675C1112.35 59.0133 1114.19 59.429 1115.42 59.9084L1115.48 59.9338L1115.55 59.9602C1116.27 60.2637 1116.95 60.5904 1117.99 61.0979C1121.98 62.021 1130.09 63.8315 1138.22 66.1096C1147.98 68.8494 1150.76 70.7306 1151.94 71.4924C1152.13 71.6199 1152.58 71.9115 1153.01 72.3127C1153.14 72.4352 1153.8 73.0405 1154.25 74.0393C1154.49 74.5888 1154.87 75.6759 1154.63 77.051C1154.37 78.6022 1153.48 79.7514 1152.51 80.4387C1151.06 81.4724 1149.54 81.4105 1149.43 81.4104C1148.99 81.4097 1148.63 81.3561 1148.45 81.3264C1148.07 81.2622 1147.71 81.1673 1147.47 81.1008C1146.53 80.8357 1145.08 80.3176 1143.61 79.7766C1140.85 78.7585 1137.48 77.4654 1134.68 76.4699C1135.7 77.01 1136.81 77.5636 1137.98 78.1252C1140.79 79.4653 1143.81 80.7844 1146.8 82.093C1149.74 83.3804 1152.69 84.6735 1155.16 85.8967C1156.3 86.4618 1157.27 87.278 1157.99 88.2326C1158.63 89.0762 1159.46 90.5544 1159.39 92.4494L1159.36 92.8147C1159.2 94.6389 1158.35 96.4784 1156.6 97.7229C1155.01 98.851 1153.27 99.0554 1152.16 99.0744C1149.93 99.1124 1147.47 98.4244 1145.53 97.7609C1143.6 97.1019 1141.57 96.2465 1139.74 95.4133C1140.84 96.0687 1141.96 96.7409 1143.1 97.4328C1146.98 99.7922 1149.67 102.156 1151.61 104.801L1151.85 105.151C1152.98 106.912 1153.11 108.897 1152.61 110.572C1152.2 111.933 1151.43 112.951 1150.76 113.632L1150.48 113.904L1150.16 114.184C1148.63 115.444 1146.78 116.024 1145.18 116.168L1144.83 116.194L1144.59 116.202C1142.05 116.258 1139.75 115.095 1138.24 114.194C1136.48 113.142 1134.67 111.741 1132.97 110.316C1129.78 107.633 1125.78 103.772 1123.28 101.564C1123.23 101.517 1123.17 101.473 1123.12 101.428C1124.79 103.54 1126.85 105.702 1129.08 107.81C1131.28 109.885 1133.36 111.665 1135.1 113.198C1135.93 113.93 1136.75 114.662 1137.39 115.307C1137.71 115.627 1138.07 116.015 1138.4 116.436C1138.63 116.729 1139.28 117.571 1139.61 118.75L1139.72 119.209C1140.21 121.496 1139.71 123.625 1139.42 124.698L1139.33 124.994C1138.87 126.493 1137.74 128.932 1134.96 130.022L1134.67 130.13L1134.29 130.25C1130.41 131.402 1126.92 129.712 1124.64 128.111C1122.16 126.374 1119.85 123.884 1117.85 121.426C1116.15 119.337 1114.39 116.883 1112.76 114.549C1112.93 118.602 1112.01 122.319 1111 125.242L1110.87 125.565C1109.65 128.61 1106.77 129.786 1104.76 129.984L1104.35 130.012L1103.89 130.014C1101.59 129.965 1099.74 128.952 1098.4 127.779C1097.05 126.589 1096.06 125.095 1095.32 123.738C1093.84 121.036 1092.68 117.605 1091.72 114.636C1090.29 110.173 1090.07 105.218 1089.51 101.016C1089.5 100.944 1089.49 100.872 1089.48 100.801L1089.02 101.728C1023.56 68.8352 984.386 50.2435 938.348 48.0129C892.254 45.7797 836.385 59.9888 739.355 102.282C680.217 128.06 612.22 134.055 543.489 131.7C474.743 129.345 402.811 118.485 335.681 108.989C267.697 99.3735 205.046 91.2289 151.788 93.0813C98.3467 94.9401 59.2559 106.767 34.1738 132.424L0 99.0168C37.8783 60.2698 92.1456 47.3373 150.127 45.3205C208.293 43.2974 275.132 52.16 342.374 61.6711C410.47 71.303 479.502 81.6895 545.126 83.9377C610.765 86.1864 670.544 80.1426 720.259 58.4729Z" fill="#C6C3E1"/>
</svg>
