<svg width="133" height="48" viewBox="0 0 133 48" fill="none" xmlns="http://www.w3.org/2000/svg">
<g clip-path="url(#clip0_996_1702)">
<path d="M44 0C57.2562 0 68 10.7438 68 24C68 35.9813 59.225 45.909 47.75 47.709V30.9375H53.3418L54.4062 24H47.75V19.5C47.75 18.3729 48.0771 17.2623 48.9668 16.5459C49.1542 16.395 49.3668 16.2618 49.6064 16.1494C50.1451 15.8967 50.8209 15.75 51.6592 15.75H54.6875V9.84375C54.6875 9.84375 51.9404 9.375 49.3154 9.375C44.8596 9.37506 41.6595 11.5688 40.6162 15.6172C40.5761 15.7729 40.5396 15.9316 40.5059 16.0928C40.3374 16.8987 40.25 17.7732 40.25 18.7129V24H34.1562V30.9375H40.25V47.709C28.775 45.909 20 35.9813 20 24C20 10.7438 30.7438 0 44 0Z" fill="#7D0E61"/>
</g>
<g clip-path="url(#clip1_996_1702)">
<path fill-rule="evenodd" clip-rule="evenodd" d="M109.131 12.4689C115.159 12.4595 120.053 17.2876 120.062 23.2407C120.062 29.1844 115.178 34.022 109.15 34.0314C103.103 34.0314 98.2281 29.2126 98.2187 23.2126C98.2093 17.3063 103.122 12.4689 109.131 12.4689ZM109.15 15.9282C105.034 15.9282 101.678 19.2001 101.678 23.2407C101.687 27.2907 105.034 30.572 109.15 30.5626C113.266 30.5626 116.603 27.272 116.594 23.222C116.584 19.2095 113.247 15.9282 109.15 15.9282Z" fill="#7D0E61"/>
<path d="M121.328 9.18762C122.594 9.18763 123.625 10.2657 123.625 11.5876C123.616 12.9095 122.575 13.9782 121.309 13.9689C120.062 13.9595 119.041 12.8907 119.041 11.5969C119.031 10.2751 120.062 9.18762 121.328 9.18762Z" fill="#7D0E61"/>
<path fill-rule="evenodd" clip-rule="evenodd" d="M99.9062 0.843777C106.028 0.843777 112.159 0.806295 118.281 0.862545C123.034 0.900054 127 2.71886 129.925 6.54385C131.556 8.68135 132.344 11.1376 132.344 13.8376V24.0938C132.344 27.3563 132.278 30.6282 132.362 33.8907C132.503 39.6657 128.875 44.1282 124.253 46.1157C122.397 46.9126 120.447 47.3344 118.431 47.3344C112.122 47.3438 105.803 47.4282 99.4937 47.3063C94.7405 47.2126 90.8312 45.2251 88.028 41.3063C86.5562 39.2438 85.853 36.9 85.853 34.3594V14.2032C85.853 8.7188 88.5249 4.8844 93.2686 2.39065C95.3311 1.31253 97.5718 0.853152 99.9062 0.843777ZM118.525 4.3313C112.244 4.2563 105.962 4.30315 99.6812 4.31253C98.3405 4.31253 97.0468 4.58444 95.7905 5.05319C92.3405 6.33756 89.1342 9.59069 89.2842 14.3813C89.3967 17.6251 89.3124 20.8594 89.3124 24.0938V34.4063C89.3124 35.9438 89.6687 37.3875 90.4655 38.6907C92.5562 42.1125 95.7155 43.7813 99.6343 43.8469C105.925 43.9407 112.225 43.8844 118.525 43.8657C120.072 43.8657 121.572 43.5469 122.969 42.8813C126.775 41.0626 128.903 38.1657 128.884 33.8157C128.847 27.1594 128.875 20.5032 128.875 13.8469C128.875 11.9626 128.341 10.2375 127.225 8.71878C125.069 5.80317 122.087 4.3688 118.525 4.3313Z" fill="#7D0E61"/>
</g>
<defs>
<clipPath id="clip0_996_1702">
<rect width="48" height="48" fill="white" transform="translate(20)"/>
</clipPath>
<clipPath id="clip1_996_1702">
<rect width="48" height="48" fill="white" transform="translate(85)"/>
</clipPath>
</defs>
</svg>
