<svg width="375" height="812" viewBox="0 0 375 812" fill="none" xmlns="http://www.w3.org/2000/svg">
<g clip-path="url(#clip0_996_2074)">
<rect width="375" height="812" fill="#C6C3E1"/>
<path d="M53.9915 231.511C108.045 221.59 170.207 215.467 227.042 224.168C284.08 232.9 346.991 258.762 381.67 322.775C418.494 390.748 395.562 456.473 385.876 489.113C373.862 529.599 374.954 536.99 380.133 545.608C380.722 546.587 381.162 547.15 381.406 547.431C381.408 547.432 381.41 547.433 381.412 547.434C382.795 547.909 388.467 549.235 401.339 547.462C429.063 543.643 464.16 529.892 509.506 511.503C548.728 495.597 600.89 473.764 646.694 469.11C671.003 466.64 701.929 467.892 731.099 484.088C762.279 501.401 781.107 529.924 790.504 561.692C803.387 605.245 812.311 644.874 822.375 685.019C823.027 687.62 823.495 688.692 827.106 690.873C832.716 694.263 844.487 698.583 865.513 700.426C907.942 704.146 966.716 696.177 1030.84 681.137C1093.57 666.425 1155.7 646.359 1202.59 629.755C1225.92 621.495 1245.22 614.184 1258.6 608.969C1265.29 606.363 1270.49 604.286 1273.97 602.882C1275.71 602.18 1277.02 601.647 1277.86 601.3C1278.28 601.127 1278.59 601 1278.78 600.922C1278.87 600.883 1278.94 600.856 1278.97 600.842C1278.98 600.837 1278.99 600.833 1279 600.831C1278.99 600.836 1279.15 601.229 1305.7 664.996C1332.36 728.998 1332.41 729.159 1332.4 729.165C1332.39 729.168 1332.37 729.176 1332.36 729.182C1332.33 729.194 1332.29 729.209 1332.25 729.227C1332.16 729.264 1332.04 729.313 1331.89 729.375C1331.59 729.499 1331.17 729.673 1330.63 729.894C1329.56 730.335 1328.01 730.967 1326.02 731.769C1322.05 733.373 1316.32 735.662 1309.06 738.49C1294.54 744.143 1273.88 751.969 1248.99 760.783C1199.44 778.329 1132.08 800.165 1062.58 816.464C994.485 832.435 918.302 844.588 853.372 838.895C790.661 833.396 709.643 806.958 687.547 718.819C677.087 677.093 669.819 644.655 659.101 607.582C637.642 610.191 606.902 622.001 561.742 640.315C521.54 656.618 468.852 678.476 420.306 685.162C395.043 688.642 365.458 688.944 336.18 678.868C305.092 668.169 279.113 647.361 260.991 617.203C220.381 549.625 242.616 483.281 252.62 449.569C264.953 408.009 264.915 399.069 259.452 388.986C253.673 378.317 240.434 366.837 206.007 361.567C171.377 356.265 126.755 359.477 79.0843 368.227C32.3309 376.808 -12.7998 389.836 -46.6393 400.922C-63.4404 406.426 -77.1869 411.362 -86.6276 414.88C-91.3421 416.637 -94.9679 418.034 -97.3463 418.964C-98.5348 419.429 -99.4105 419.777 -99.9538 419.994C-100.225 420.103 -100.414 420.179 -100.516 420.22C-100.548 420.233 -100.573 420.241 -100.589 420.247C-100.578 420.243 -100.564 420.239 -126.798 355.88C-152.762 292.179 -153.013 291.522 -153 291.509C-152.992 291.506 -152.974 291.498 -152.96 291.492C-152.931 291.481 -152.895 291.467 -152.855 291.45C-152.774 291.418 -152.671 291.376 -152.547 291.325C-152.296 291.224 -151.958 291.088 -151.534 290.918C-150.686 290.579 -149.494 290.106 -147.979 289.514C-144.95 288.329 -140.624 286.664 -135.161 284.628C-124.246 280.561 -108.731 274.995 -89.9137 268.83C-52.517 256.579 -0.979614 241.6 53.9915 231.511Z" fill="#EAE6F4"/>
<path d="M242.042 275.566C240.342 275.297 239.051 274.283 238.253 273.017L238.1 272.76C237.335 271.403 237.371 270.018 237.514 269.162C237.675 268.196 238.071 267.244 238.685 266.414C239.993 264.648 241.613 262.662 243.23 260.684C244.873 258.674 246.536 256.645 248.036 254.68C248.571 253.978 249.072 253.299 249.536 252.648C247.963 254.319 246.149 256.331 244.63 257.972C243.783 258.887 242.942 259.78 242.365 260.311C242.22 260.444 241.999 260.642 241.746 260.828C241.628 260.915 241.389 261.084 241.073 261.243C240.985 261.287 239.929 261.868 238.513 261.643C237.577 261.495 236.515 260.992 235.749 259.965C235.066 259.048 234.923 258.117 234.894 257.616C234.84 256.712 235.091 256.021 235.139 255.882C235.298 255.429 235.513 255.052 235.607 254.888C236.172 253.906 237.453 251.552 243.403 246.085C248.342 241.546 253.451 237.346 255.95 235.256C256.5 234.525 256.866 234.046 257.267 233.57C258.11 232.584 259.161 231.769 260.16 230.949C260.564 230.618 260.974 230.284 261.387 229.947C294.399 184.791 319.875 150.594 359.886 128.036C400.208 105.305 453.123 95.4427 538.967 91.2723L540.854 130.102C455.883 134.23 410.862 143.925 378.978 161.901C347.162 179.838 326.263 207.065 291.833 254.171C291.058 254.779 294.323 262.575 294.652 264.494C295.078 266.974 295.533 269.872 295.484 272.36C295.46 273.61 295.308 275.059 294.781 276.418C294.224 277.854 293.168 279.364 291.327 280.204C289.807 280.897 286.992 281.224 284.831 279.144C283.029 277.409 281 275.07 279.601 272.104C279.318 274.331 278.98 276.683 278.554 278.757C278.041 281.248 277.319 283.882 276.193 286.033C275.15 288.026 273.27 290.506 270.068 291.06L269.754 291.108L269.505 291.134C267.129 291.339 265.425 289.993 264.536 289.076L264.363 288.893C263.755 288.228 262.599 286.865 262.093 285.023L262.001 284.649C261.787 283.663 261.942 282.804 261.997 282.506C262.077 282.077 262.195 281.662 262.303 281.316C262.521 280.618 262.831 279.795 263.149 278.972C263.818 277.244 264.64 275.22 265.432 272.941C266.213 270.695 266.859 268.474 267.26 266.421C266.304 268.898 264.891 273.104 263.622 276.164C262.943 277.799 262.173 279.463 261.304 280.857C260.535 282.092 259.262 283.839 257.311 284.686C256.074 285.224 254.432 285.526 252.774 285.137L252.442 285.05L252.143 284.955C251.414 284.705 250.491 284.248 249.692 283.414C248.709 282.388 248.043 280.894 248.198 279.18L248.24 278.835C248.641 276.213 249.687 273.533 251.58 270.437C252.055 269.661 252.527 268.899 252.991 268.153C252.052 269.324 251.012 270.551 249.966 271.628C248.825 272.803 247.326 274.18 245.712 274.953C244.904 275.341 243.589 275.811 242.042 275.566Z" fill="#E578B7"/>
<path d="M253.167 320.546C251.56 319.929 249.935 320.162 248.611 320.859L248.35 321.005C247.009 321.798 246.348 323.015 246.043 323.828C245.7 324.745 245.567 325.768 245.684 326.793C245.933 328.977 246.344 331.507 246.755 334.028C247.173 336.591 247.599 339.179 247.915 341.631C248.027 342.506 248.122 343.345 248.198 344.14C247.672 341.908 247.106 339.258 246.611 337.077C246.335 335.861 246.053 334.667 245.82 333.919C245.761 333.732 245.668 333.449 245.542 333.161C245.483 333.028 245.361 332.762 245.166 332.466C245.112 332.384 244.488 331.353 243.15 330.839C242.265 330.5 241.093 330.404 239.917 330.911C238.867 331.363 238.278 332.099 238.002 332.517C237.503 333.274 237.375 333.997 237.347 334.142C237.258 334.614 237.256 335.048 237.256 335.236C237.254 336.369 237.186 339.049 239.605 346.758C241.613 353.159 243.937 359.351 245.057 362.41C245.167 363.318 245.245 363.916 245.355 364.528C245.592 365.804 246.094 367.035 246.549 368.245C246.733 368.734 246.922 369.228 247.111 369.726C253.122 425.339 258.086 467.692 281.459 507.233C305.012 547.08 345.907 582.078 418.165 628.612L439.214 595.928C367.691 549.867 333.55 518.961 314.924 487.451C296.34 456.009 291.854 421.98 285.59 363.97C285.223 363.057 291.948 357.937 293.193 356.44C294.801 354.505 296.645 352.223 297.847 350.044C298.451 348.949 299.044 347.618 299.267 346.178C299.502 344.656 299.343 342.82 298.168 341.172C297.198 339.812 294.924 338.121 292.012 338.842C289.585 339.443 286.658 340.455 283.964 342.324C284.831 340.254 285.715 338.048 286.382 336.039C287.185 333.625 287.876 330.983 287.977 328.557C288.07 326.31 287.681 323.222 285.185 321.141L284.938 320.942L284.735 320.795C282.78 319.43 280.63 319.744 279.402 320.093L279.162 320.165C278.303 320.437 276.619 321.04 275.26 322.382L274.994 322.66C274.315 323.407 274.02 324.228 273.919 324.514C273.774 324.925 273.668 325.343 273.589 325.697C273.429 326.411 273.286 327.278 273.15 328.151C272.865 329.982 272.564 332.145 272.111 334.515C271.665 336.85 271.113 339.096 270.434 341.075C270.845 338.452 271.724 334.103 272.155 330.819C272.385 329.063 272.55 327.237 272.495 325.595C272.446 324.141 272.217 321.992 270.951 320.283C270.148 319.198 268.877 318.116 267.247 317.624L266.916 317.533L266.609 317.466C265.853 317.318 264.825 317.252 263.717 317.575C262.352 317.972 261.029 318.933 260.306 320.494L260.169 320.815C259.206 323.285 258.771 326.129 258.863 329.757C258.886 330.667 258.914 331.563 258.943 332.441C258.715 330.957 258.428 329.374 258.06 327.919C257.66 326.331 257.05 324.388 256.04 322.912C255.533 322.172 254.629 321.107 253.167 320.546Z" fill="#D3E18D"/>
</g>
<defs>
<clipPath id="clip0_996_2074">
<rect width="375" height="812" fill="white"/>
</clipPath>
</defs>
</svg>
