<svg width="1280" height="522" viewBox="0 0 1280 522" fill="none" xmlns="http://www.w3.org/2000/svg">
<g clip-path="url(#clip0_827_105)">
<rect width="1280" height="522" fill="#C6C3E1"/>
<path opacity="0.8" d="M85.9915 -115.884C140.045 -125.805 202.207 -131.928 259.042 -123.227C316.08 -114.494 378.991 -88.6331 413.67 -24.6201C450.494 43.3532 427.562 109.078 417.876 141.718C405.862 182.204 406.954 189.595 412.133 198.213C412.722 199.193 413.162 199.755 413.406 200.036C413.408 200.037 413.41 200.038 413.412 200.039C414.795 200.515 420.467 201.84 433.339 200.067C461.063 196.249 496.16 182.498 541.506 164.108C580.728 148.203 632.89 126.369 678.694 121.715C703.003 119.245 733.929 120.497 763.099 136.693C794.279 154.006 813.107 182.529 822.504 214.297C835.387 257.85 833.936 272.355 844 312.5C853.05 348.602 864.203 348.602 864.203 348.602C864.203 348.602 876.5 353.031 897.513 353.031C962 353.031 998.716 348.782 1062.84 333.742C1125.57 319.03 1187.7 298.964 1234.59 282.36C1257.92 274.1 1277.22 266.789 1290.6 261.574C1297.29 258.969 1302.49 256.892 1305.97 255.487C1307.71 254.785 1309.02 254.252 1309.86 253.905C1310.28 253.732 1310.59 253.605 1310.78 253.527C1310.87 253.489 1310.94 253.461 1310.97 253.447C1310.98 253.442 1310.99 253.438 1311 253.436C1310.99 253.441 1311.15 253.834 1337.7 317.602C1364.36 381.603 1364.41 381.764 1364.4 381.77C1364.39 381.774 1364.37 381.781 1364.36 381.787C1364.33 381.799 1364.29 381.814 1364.25 381.832C1364.16 381.869 1364.04 381.919 1363.89 381.98C1363.59 382.104 1363.17 382.278 1362.63 382.499C1361.56 382.941 1360.01 383.572 1358.02 384.374C1354.05 385.978 1348.32 388.268 1341.06 391.096C1326.54 396.748 1305.88 404.574 1280.99 413.389C1231.44 430.934 1164.08 452.77 1094.58 469.069C1026.48 485.041 950.302 497.193 885.372 491.5C822.661 486.002 741.643 459.563 719.547 371.424C709.087 329.698 713.703 269.102 691.101 260.187C668.499 251.273 635.203 270.102 593.742 292.92C552.282 315.738 500.852 331.081 452.306 337.768C427.043 341.247 397.458 341.549 368.18 331.474C337.092 320.774 311.113 299.967 292.991 269.809C252.381 202.231 274.616 135.886 284.62 102.174C296.953 60.6143 296.915 51.6742 291.452 41.5908C285.673 30.9225 272.434 19.4424 238.007 14.1718C203.377 8.87029 158.755 12.0825 111.084 20.832C64.3309 29.4131 19.2002 42.441 -14.6393 53.5273C-31.4404 59.0316 -45.1869 63.9676 -54.6276 67.4853C-59.3421 69.242 -62.9679 70.639 -65.3463 71.5693C-66.5348 72.0341 -67.4105 72.3825 -67.9538 72.5996C-68.225 72.708 -68.4136 72.7837 -68.5163 72.8252C-68.5485 72.8382 -68.5734 72.8464 -68.5885 72.8525C-68.5779 72.8482 -68.5645 72.8443 -94.7975 8.48532C-120.762 -55.2156 -121.013 -55.8726 -121 -55.8858C-120.992 -55.8887 -120.974 -55.8965 -120.96 -55.9024C-120.931 -55.9142 -120.895 -55.9281 -120.855 -55.9444C-120.774 -55.9771 -120.671 -56.019 -120.547 -56.0694C-120.296 -56.1704 -119.958 -56.3072 -119.534 -56.4766C-118.686 -56.8156 -117.494 -57.2884 -115.979 -57.8809C-112.95 -59.0655 -108.624 -60.7311 -103.161 -62.7666C-92.2458 -66.8337 -76.7305 -72.3998 -57.9137 -78.5645C-20.517 -90.8162 31.0204 -105.794 85.9915 -115.884Z" fill="#EAE6F4"/>
<path d="M415.158 203.045C412.635 202.645 410.719 201.141 409.536 199.263L409.309 198.881C408.173 196.867 408.227 194.812 408.439 193.542C408.678 192.109 409.266 190.695 410.177 189.465C412.117 186.844 414.522 183.896 416.921 180.962C419.36 177.978 421.828 174.968 424.053 172.051C424.846 171.01 425.59 170.003 426.278 169.037C423.945 171.516 421.253 174.502 418.998 176.937C417.742 178.294 416.493 179.62 415.638 180.407C415.423 180.605 415.095 180.899 414.719 181.175C414.544 181.303 414.19 181.554 413.72 181.79C413.59 181.856 412.023 182.718 409.922 182.385C408.533 182.164 406.956 181.418 405.821 179.894C404.807 178.534 404.595 177.152 404.551 176.409C404.471 175.067 404.843 174.042 404.915 173.836C405.151 173.163 405.47 172.604 405.61 172.361C406.448 170.904 408.349 167.411 417.178 159.298C424.507 152.562 432.088 146.329 435.797 143.229C436.613 142.143 437.156 141.433 437.751 140.727C439.002 139.263 440.561 138.054 442.044 136.837C442.643 136.346 443.252 135.85 443.864 135.35C492.852 68.3424 530.655 17.5972 590.029 -15.8756C649.862 -49.6075 728.384 -64.2418 855.769 -70.4302L858.568 -12.8106C732.478 -6.68515 665.673 7.70222 618.358 34.3763C571.146 60.9931 540.135 101.396 489.043 171.297C487.894 172.199 492.738 183.767 493.227 186.615C493.858 190.295 494.534 194.595 494.462 198.288C494.426 200.143 494.2 202.292 493.419 204.309C492.592 206.44 491.025 208.681 488.292 209.927C486.037 210.956 481.86 211.441 478.653 208.354C475.98 205.78 472.969 202.309 470.893 197.908C470.472 201.212 469.971 204.702 469.338 207.779C468.578 211.476 467.506 215.384 465.836 218.577C464.288 221.534 461.498 225.214 456.746 226.036L456.281 226.108L455.911 226.147C452.385 226.451 449.856 224.453 448.537 223.092L448.281 222.822C447.379 221.835 445.663 219.811 444.912 217.078L444.776 216.522C444.458 215.059 444.688 213.785 444.77 213.342C444.889 212.707 445.063 212.091 445.224 211.577C445.547 210.541 446.007 209.321 446.48 208.099C447.472 205.534 448.691 202.531 449.867 199.15C451.026 195.817 451.984 192.522 452.579 189.475C451.161 193.151 449.064 199.392 447.181 203.932C446.174 206.359 445.031 208.827 443.742 210.897C442.6 212.729 440.712 215.32 437.817 216.578C435.98 217.376 433.544 217.824 431.084 217.247L430.592 217.118L430.147 216.977C429.066 216.606 427.695 215.927 426.511 214.691C425.052 213.168 424.064 210.951 424.294 208.408L424.356 207.895C424.951 204.006 426.502 200.028 429.311 195.435C430.016 194.282 430.717 193.152 431.406 192.045C430.012 193.782 428.469 195.603 426.917 197.201C425.223 198.944 422.999 200.989 420.605 202.135C419.405 202.71 417.453 203.408 415.158 203.045Z" fill="#E578B7"/>
<path d="M425.723 357.79C428.107 356.875 430.519 357.22 432.483 358.254L432.87 358.471C434.861 359.648 435.842 361.454 436.293 362.661C436.802 364.021 437 365.539 436.827 367.06C436.457 370.301 435.848 374.056 435.237 377.796C434.617 381.6 433.985 385.44 433.516 389.079C433.349 390.377 433.209 391.622 433.096 392.802C433.877 389.489 434.716 385.557 435.451 382.32C435.86 380.517 436.278 378.744 436.626 377.635C436.713 377.356 436.85 376.937 437.038 376.51C437.125 376.312 437.306 375.917 437.595 375.478C437.675 375.357 438.601 373.826 440.588 373.064C441.9 372.561 443.639 372.419 445.384 373.171C446.942 373.842 447.817 374.933 448.226 375.554C448.966 376.677 449.157 377.75 449.198 377.965C449.33 378.665 449.333 379.309 449.333 379.589C449.336 381.27 449.436 385.246 445.847 396.686C442.867 406.184 439.419 415.372 437.756 419.912C437.593 421.26 437.478 422.147 437.315 423.056C436.963 424.949 436.218 426.776 435.543 428.571C435.269 429.296 434.99 430.03 434.709 430.769C425.789 513.293 418.423 576.141 383.74 634.816C348.789 693.946 288.104 745.88 180.88 814.932L149.646 766.431C255.78 698.082 306.442 652.219 334.08 605.462C361.658 558.805 368.314 508.309 377.61 422.227C378.154 420.872 368.175 413.275 366.328 411.053C363.941 408.182 361.205 404.796 359.422 401.562C358.526 399.937 357.646 397.963 357.315 395.825C356.965 393.567 357.202 390.843 358.945 388.397C360.384 386.379 363.759 383.87 368.08 384.94C371.682 385.832 376.025 387.333 380.023 390.107C378.736 387.035 377.425 383.762 376.434 380.78C375.244 377.198 374.218 373.278 374.068 369.678C373.93 366.343 374.507 361.761 378.211 358.673L378.578 358.378L378.879 358.16C381.78 356.134 384.969 356.6 386.792 357.118L387.149 357.225C388.424 357.628 390.921 358.523 392.938 360.514L393.334 360.927C394.341 362.035 394.779 363.254 394.929 363.678C395.144 364.288 395.301 364.908 395.419 365.434C395.656 366.493 395.869 367.78 396.07 369.075C396.493 371.792 396.939 375.002 397.611 378.518C398.273 381.984 399.092 385.317 400.1 388.253C399.49 384.36 398.185 377.907 397.546 373.034C397.205 370.428 396.961 367.719 397.042 365.282C397.115 363.125 397.454 359.936 399.333 357.399C400.524 355.79 402.411 354.184 404.83 353.454L405.32 353.319L405.776 353.219C406.898 353 408.424 352.902 410.068 353.381C412.092 353.97 414.057 355.396 415.129 357.714L415.332 358.189C416.761 361.855 417.406 366.075 417.27 371.458C417.236 372.808 417.195 374.138 417.151 375.441C417.49 373.24 417.916 370.89 418.461 368.731C419.056 366.374 419.96 363.491 421.46 361.301C422.212 360.204 423.553 358.623 425.723 357.79Z" fill="#D3E18D"/>
</g>
<defs>
<clipPath id="clip0_827_105">
<rect width="1280" height="522" fill="white"/>
</clipPath>
</defs>
</svg>
