<svg width="48" height="48" viewBox="0 0 48 48" fill="none" xmlns="http://www.w3.org/2000/svg">
<g clip-path="url(#clip0_996_1704)">
<path fill-rule="evenodd" clip-rule="evenodd" d="M24.1311 12.4689C30.1592 12.4595 35.053 17.2876 35.0624 23.2407C35.0624 29.1844 30.178 34.022 24.1499 34.0314C18.103 34.0314 13.2281 29.2126 13.2187 23.2126C13.2093 17.3063 18.1218 12.4689 24.1311 12.4689ZM24.1499 15.9282C20.0343 15.9282 16.678 19.2001 16.678 23.2407C16.6874 27.2907 20.0343 30.572 24.1499 30.5626C28.2655 30.5626 31.603 27.272 31.5937 23.222C31.5843 19.2095 28.2468 15.9282 24.1499 15.9282Z" fill="#7D0E61"/>
<path d="M36.3281 9.18762C37.5937 9.18763 38.6249 10.2657 38.6249 11.5876C38.6156 12.9095 37.5749 13.9782 36.3093 13.9689C35.0624 13.9595 34.0405 12.8907 34.0405 11.5969C34.0312 10.2751 35.0624 9.18762 36.3281 9.18762Z" fill="#7D0E61"/>
<path fill-rule="evenodd" clip-rule="evenodd" d="M14.9062 0.843777C21.0281 0.843777 27.1593 0.806295 33.2812 0.862545C38.0343 0.900054 41.9999 2.71886 44.9249 6.54385C46.5561 8.68135 47.3437 11.1376 47.3437 13.8376V24.0938C47.3437 27.3563 47.278 30.6282 47.3624 33.8907C47.503 39.6657 43.8749 44.1282 39.253 46.1157C37.3967 46.9126 35.4468 47.3344 33.4311 47.3344C27.1218 47.3438 20.803 47.4282 14.4937 47.3063C9.74054 47.2126 5.83117 45.2251 3.02805 41.3063C1.55617 39.2438 0.853027 36.9 0.853027 34.3594V14.2032C0.853039 8.7188 3.52488 4.8844 8.26862 2.39065C10.3311 1.31253 12.5718 0.853152 14.9062 0.843777ZM33.5249 4.3313C27.2437 4.2563 20.9624 4.30315 14.6812 4.31253C13.3405 4.31253 12.0468 4.58444 10.7905 5.05319C7.34053 6.33756 4.13424 9.59069 4.28424 14.3813C4.39674 17.6251 4.31244 20.8594 4.31244 24.0938V34.4063C4.31244 35.9438 4.66867 37.3875 5.46555 38.6907C7.55617 42.1125 10.7155 43.7813 14.6343 43.8469C20.9249 43.9407 27.2249 43.8844 33.5249 43.8657C35.0718 43.8657 36.5718 43.5469 37.9687 42.8813C41.7749 41.0626 43.903 38.1657 43.8843 33.8157C43.8468 27.1594 43.8749 20.5032 43.8749 13.8469C43.8749 11.9626 43.3405 10.2375 42.2249 8.71878C40.0686 5.80317 37.0874 4.3688 33.5249 4.3313Z" fill="#7D0E61"/>
</g>
<defs>
<clipPath id="clip0_996_1704">
<rect width="48" height="48" fill="white"/>
</clipPath>
</defs>
</svg>
