<svg width="114" height="115" viewBox="0 0 114 115" fill="none" xmlns="http://www.w3.org/2000/svg">
<path fill-rule="evenodd" clip-rule="evenodd" d="M52.8453 15.5901C56.8066 15.5902 60.4507 16.2874 63.7672 17.6936C67.1263 19.0923 70.0047 21.042 72.399 23.5442C74.8569 25.9913 76.7583 28.954 78.1031 32.4182L78.5973 33.7141C79.6762 36.7701 80.2144 40.0523 80.2145 43.5559C80.2145 45.7917 80.0321 47.9416 79.6666 50.0042C79.3778 51.9526 78.944 53.7704 78.3785 55.4592C79.9572 58.9426 81.1927 62.706 82.0768 66.7512L82.3473 67.969C82.9493 70.8199 83.3217 73.7549 83.4625 76.7737C83.6227 80.2099 85.807 82.1056 87.7428 84.8362C89.4323 87.2194 89.7463 88.1799 89.8811 88.5922L89.8912 88.6233C89.9129 88.6894 89.9616 88.8395 89.985 89.011L89.9854 89.0136C89.9935 89.0726 90.0289 89.3301 89.9479 89.637C89.9023 89.8092 89.7865 90.1281 89.4781 90.4006C89.13 90.7082 88.7108 90.8064 88.361 90.7844C87.854 90.7524 87.5232 90.4763 87.4762 90.4371L87.4723 90.4338C87.3715 90.352 87.2987 90.2726 87.2633 90.2327C87.1872 90.1467 87.1236 90.0585 87.0817 89.9993C86.9145 89.7631 86.6782 89.3745 86.441 88.9768C85.9991 88.2356 85.4701 87.3235 85.0153 86.5784C85.1478 86.8863 85.2941 87.2127 85.4557 87.552C85.8319 88.3417 86.2572 89.1636 86.6796 89.9797L86.7428 90.1018C87.1786 90.9441 87.6138 91.7893 87.9537 92.5295C88.1108 92.8715 88.1826 93.2399 88.1705 93.593C88.1598 93.9052 88.074 94.3978 87.7057 94.8196L87.5553 94.9758C87.1848 95.3226 86.677 95.5495 86.0856 95.512C85.5109 95.4754 85.0736 95.1992 84.8141 94.9963C84.2952 94.5906 83.8596 93.9776 83.5367 93.4641C83.2157 92.9533 82.1145 90.2565 81.8483 89.7239C81.9787 90.079 82.9066 92.5642 83.0397 92.9358C83.492 94.199 83.6708 95.2419 83.6246 96.2102C83.5924 96.8851 83.2367 97.4098 82.7809 97.72C82.3844 97.9896 81.9635 98.0694 81.6725 98.0881C81.0818 98.126 80.5354 97.9355 80.1207 97.679L79.9508 97.5667L79.8365 97.4778C79.2791 97.0187 78.9815 96.3519 78.8082 95.8801C78.5994 95.3115 78.4442 94.6534 78.3199 94.011C78.0862 92.8018 77.885 91.1715 77.7213 90.1995C77.7182 90.1812 77.7138 90.1628 77.7106 90.1448C77.7005 90.9374 77.772 91.8158 77.8922 92.7122C78.011 93.5972 78.159 94.3935 78.2731 95.0686C78.3275 95.3908 78.3786 95.7107 78.4059 95.9778C78.4194 96.1104 78.4307 96.2672 78.4283 96.425C78.4267 96.5353 78.4202 96.8503 78.275 97.1809L78.2155 97.3069C77.9034 97.9234 77.3932 98.3195 77.1256 98.511L76.9674 98.6174C76.5828 98.8574 75.9445 99.1316 75.1989 98.9299L75.025 98.8752L74.8121 98.7874C73.7818 98.3107 73.3174 97.3137 73.0983 96.5471C72.8528 95.6881 72.7846 94.6869 72.7819 93.7502C72.7798 92.9533 73.6079 89.4611 73.6696 88.6233C72.9531 89.584 72.2881 91.5933 70.4987 93.3518L70.3239 93.4504C69.5047 93.8582 68.667 93.5992 68.1852 93.2815L68.0875 93.2122L67.9801 93.1272C67.4616 92.6889 67.2241 92.111 67.1364 91.594C67.0475 91.07 67.0978 90.5418 67.1793 90.092C67.3417 89.1967 67.7138 88.1933 68.0465 87.3342C68.5467 86.0429 69.4169 84.8648 70.0699 83.7961C71.8774 80.8382 70.5274 76.6406 70.066 73.3333C69.8181 71.556 69.5038 69.8219 69.1315 68.1292C65.7809 70.2671 62.1101 71.3448 58.1276 71.345C55.9076 71.345 53.7463 71.0062 51.6481 70.3303L51.6256 70.3225C49.5783 69.5813 47.716 68.4995 46.0426 67.0803L46.0319 67.0725C44.4079 65.6422 43.0997 63.902 42.1071 61.8635L42.0973 61.843C41.1575 59.7221 40.6961 57.3357 40.6959 54.6995C40.6959 52.1261 41.1271 49.7763 42.0016 47.6614C42.8692 45.5635 44.0511 43.7596 45.5533 42.2639C47.0442 40.7204 48.7569 39.5407 50.6881 38.7327C52.6825 37.864 54.7471 37.427 56.8737 37.427C58.7495 37.427 60.6482 37.7704 62.5651 38.4475C64.0732 38.9641 65.5199 39.7082 66.9088 40.677C66.6697 39.2229 66.2762 37.8675 65.7291 36.6106C64.9875 34.9071 63.9962 33.4696 62.7555 32.2903L62.7418 32.2795C61.4937 31.0369 60.0479 30.0766 58.4 29.3977L58.3746 29.3879C56.8008 28.6604 55.0801 28.2904 53.2037 28.2903C50.9798 28.2903 48.9053 28.7713 46.9742 29.7327L46.9615 29.7405C45.0136 30.6532 43.2929 31.9079 41.8004 33.5081C40.3738 35.1014 39.2236 36.9836 38.358 39.1633L38.36 39.1653C37.5567 41.2791 37.153 43.5734 37.153 46.052V76.8069C37.1524 78.7129 35.605 80.2581 33.6989 80.2581H27.5836C25.6779 80.2575 24.133 78.7126 24.1324 76.8069V46.052C24.1325 41.6986 24.8307 37.6611 26.236 33.9504L26.2389 33.9426C27.7012 30.2422 29.7179 27.017 32.2877 24.2756C34.8593 21.5325 37.892 19.3988 41.3785 17.8762L41.3815 17.8743C44.9342 16.3496 48.7589 15.5901 52.8453 15.5901ZM54.8961 51.3977C55.6768 50.4651 56.5654 50.0404 57.5895 50.0403C58.7753 50.0403 60.0442 50.6289 61.401 51.9797L61.9186 52.4973C63.0117 53.6553 64.0367 55.1347 65.0006 56.9397C64.4753 57.5491 63.8671 57.974 63.1725 58.2346C62.3118 58.4975 61.1753 58.6447 59.7399 58.6448C57.4573 58.6448 55.9247 58.2884 55.0221 57.6917C54.1707 57.0718 53.7135 56.1431 53.7135 54.7864C53.7137 53.3851 54.116 52.2787 54.8824 51.4133L54.8961 51.3977Z" fill="#7D0E61"/>
</svg>
