<svg width="454" height="160" viewBox="0 0 454 160" fill="none" xmlns="http://www.w3.org/2000/svg">
<g filter="url(#filter0_d_1069_741)">
<g filter="url(#filter1_g_1069_741)">
<path d="M100.79 68.4015C102.586 68.4015 104.041 69.8574 104.041 71.6527V98.7726C104.041 102.312 104.796 104.861 106.306 106.419C107.817 107.976 110.083 108.755 113.103 108.755C116.077 108.755 118.248 107.976 119.616 106.419C121.032 104.861 121.74 102.312 121.74 98.7726V71.6527C121.74 69.8575 123.195 68.4017 124.99 68.4015H129.108C130.904 68.4015 132.359 69.8574 132.359 71.6527V99.2686C132.359 102.147 131.935 104.79 131.085 107.197C130.236 109.557 128.985 111.587 127.333 113.286C125.728 114.985 123.699 116.306 121.245 117.25C118.838 118.194 116.029 118.666 112.82 118.666C109.658 118.666 106.85 118.194 104.395 117.25C101.988 116.306 99.9589 114.985 98.307 113.286C96.7023 111.587 95.4751 109.557 94.6256 107.197C93.8233 104.79 93.4217 102.147 93.4217 99.2686V71.6527C93.4217 69.8574 94.8776 68.4015 96.673 68.4015H100.79Z" fill="#EAE6F4"/>
<path d="M147.724 68.432C148.942 68.432 150.059 69.1133 150.616 70.1968L160.557 89.5422C162.117 92.5756 166.699 91.4665 166.699 88.0558V71.6832C166.699 69.8878 168.155 68.432 169.951 68.432H174.068C175.863 68.432 177.319 69.8878 177.319 71.6832V114.737C177.319 116.533 175.863 117.989 174.068 117.989H165.852C164.634 117.989 163.518 117.307 162.961 116.224L153.019 96.8785C151.459 93.8454 146.877 94.9542 146.877 98.3649V114.737C146.877 116.533 145.422 117.989 143.626 117.989H139.509C137.714 117.989 136.258 116.533 136.258 114.737V71.6832C136.258 69.8878 137.714 68.432 139.509 68.432H147.724Z" fill="#EAE6F4"/>
<path fill-rule="evenodd" clip-rule="evenodd" d="M202.599 68.432C205.053 68.432 207.342 69.0694 209.466 70.3437C211.589 71.6179 213.43 73.3641 214.987 75.5821C216.592 77.8003 217.843 80.3728 218.739 83.2989C219.683 86.2251 220.156 89.3638 220.156 92.7148C220.156 96.0656 219.683 99.2748 218.739 102.342C217.843 105.363 216.592 108.053 214.987 110.413C213.43 112.726 211.589 114.567 209.466 115.936C207.342 117.304 205.053 117.989 202.599 117.989H184.469C182.674 117.989 181.218 116.533 181.218 114.737V71.6832C181.218 69.8878 182.674 68.432 184.469 68.432H202.599ZM195.088 78.3438C193.293 78.3439 191.838 79.799 191.838 81.5942V104.826C191.838 106.622 193.293 108.077 195.088 108.077H199.483C201.182 108.077 202.645 107.676 203.872 106.874C205.147 106.071 206.186 104.986 206.988 103.617C207.837 102.201 208.474 100.549 208.899 98.6619C209.324 96.7268 209.536 94.6262 209.536 92.3608C209.536 87.6412 208.663 84.1252 206.917 81.8125C205.17 79.5 202.693 78.3438 199.483 78.3438H195.088Z" fill="#EAE6F4"/>
<path d="M244.377 67.0162C247.114 67.0163 249.616 67.4412 251.881 68.2907C254.146 69.093 256.153 70.1781 257.899 71.5468C259.692 72.9155 261.202 74.5208 262.429 76.3614C263.025 77.2319 263.56 78.1247 264.033 79.0396C264.859 80.6368 263.956 82.5125 262.261 83.1135L258.389 84.4867C256.707 85.0833 254.87 84.1931 253.933 82.6737C253.887 82.5989 253.84 82.5246 253.792 82.4498C253.179 81.4116 252.424 80.4912 251.527 79.6889C250.678 78.8866 249.686 78.2257 248.554 77.7066C247.421 77.1874 246.17 76.9273 244.802 76.9272C243.527 76.9272 242.276 77.1632 241.049 77.6351C239.87 78.1071 238.784 78.8156 237.793 79.7595C236.849 80.6563 236.093 81.7656 235.527 83.087C234.961 84.3613 234.678 85.8481 234.678 87.547V96.8207C234.678 98.5669 234.961 100.148 235.527 101.564C236.093 102.98 236.872 104.16 237.863 105.104C238.854 106.048 240.011 106.779 241.333 107.298C242.654 107.817 244.046 108.077 245.509 108.077C246.784 108.077 247.963 107.959 249.049 107.723C250.181 107.487 251.173 107.133 252.022 106.661C252.872 106.189 253.533 105.599 254.005 104.891C254.477 104.184 254.713 103.381 254.713 102.485C254.713 100.882 253.413 99.5818 251.81 99.5816H244.3C242.505 99.5815 241.05 98.1265 241.049 96.3312V93.6297C241.049 91.8344 242.505 90.3785 244.3 90.3785H262.081C263.876 90.3785 265.332 91.8343 265.332 93.6297V102.485C265.332 104.891 264.789 107.062 263.704 108.997C262.618 110.885 261.155 112.514 259.315 113.883C257.521 115.204 255.421 116.219 253.014 116.927C250.654 117.635 248.152 117.989 245.509 117.989C242.253 117.989 239.303 117.493 236.66 116.502C234.064 115.51 231.822 114.118 229.935 112.325C228.047 110.531 226.584 108.384 225.545 105.883C224.554 103.334 224.059 100.526 224.059 97.458V86.7677C224.059 83.7945 224.554 81.1046 225.545 78.6977C226.584 76.2908 227.999 74.2136 229.793 72.4673C231.633 70.7211 233.781 69.3759 236.236 68.432C238.737 67.4881 241.451 67.0162 244.377 67.0162Z" fill="#EAE6F4"/>
<path d="M389.142 67.0162C391.879 67.0162 394.381 67.4412 396.647 68.2907C398.912 69.093 400.918 70.1783 402.664 71.5468C404.457 72.9155 405.968 74.5208 407.195 76.3614C407.791 77.2319 408.325 78.1247 408.799 79.0396C409.625 80.6368 408.721 82.5125 407.027 83.1135L403.155 84.4867C401.472 85.0834 399.635 84.1932 398.698 82.6737C398.652 82.599 398.605 82.5244 398.558 82.4498C397.944 81.4115 397.189 80.4913 396.292 79.6889C395.443 78.8867 394.452 78.2257 393.319 77.7066C392.187 77.1874 390.936 76.9273 389.567 76.9272C388.293 76.9272 387.042 77.1632 385.814 77.6351C384.635 78.1071 383.549 78.8157 382.558 79.7595C381.615 80.6563 380.859 81.7655 380.293 83.087C379.726 84.3613 379.444 85.848 379.444 87.547V96.8207C379.444 98.5669 379.726 100.148 380.293 101.564C380.859 102.98 381.638 104.16 382.629 105.104C383.62 106.048 384.776 106.779 386.098 107.298C387.419 107.818 388.812 108.077 390.275 108.077C391.549 108.077 392.729 107.959 393.815 107.723C394.947 107.487 395.939 107.133 396.788 106.661C397.638 106.189 398.299 105.599 398.77 104.891C399.242 104.184 399.478 103.381 399.478 102.485C399.478 100.881 398.178 99.5816 396.575 99.5816H389.066C387.27 99.5816 385.814 98.1265 385.814 96.3312V93.6297C385.814 91.8343 387.27 90.3785 389.066 90.3785H406.847C408.642 90.3785 410.097 91.8344 410.097 93.6297V102.485C410.097 104.892 409.554 107.062 408.469 108.997C407.383 110.885 405.921 112.514 404.08 113.883C402.287 115.204 400.186 116.219 397.779 116.927C395.42 117.635 392.918 117.989 390.275 117.989C387.019 117.989 384.069 117.493 381.426 116.502C378.83 115.51 376.588 114.118 374.7 112.325C372.813 110.532 371.349 108.384 370.311 105.883C369.32 103.334 368.824 100.526 368.824 97.458V86.7677C368.824 83.7945 369.32 81.1046 370.311 78.6977C371.349 76.2907 372.765 74.2136 374.558 72.4673C376.399 70.7211 378.546 69.3759 381.001 68.432C383.502 67.4881 386.216 67.0162 389.142 67.0162Z" fill="#EAE6F4"/>
<path fill-rule="evenodd" clip-rule="evenodd" d="M294.362 66.3011C296.513 66.3011 298.483 66.8288 300.252 67.8902C302.034 68.9311 303.609 70.3375 304.98 72.0997C306.383 73.7965 307.612 75.7498 308.668 77.9578L309.056 78.7732C309.863 80.5117 310.562 82.311 311.155 84.1697C312.274 84.096 314.382 84.0353 316.415 83.9915L322.044 83.8752C322.668 83.8275 323.274 83.7921 323.863 83.7684V71.6832C323.863 69.8879 325.319 68.4321 327.114 68.432H335.33C336.548 68.432 337.665 69.1133 338.222 70.1968L348.163 89.5422C349.722 92.5755 354.305 91.4665 354.305 88.0558V71.6832C354.305 69.8879 355.76 68.4321 357.556 68.432H361.674C363.469 68.432 364.924 69.8879 364.924 71.6832V114.737C364.924 116.533 363.469 117.989 361.674 117.989H353.458C352.239 117.989 351.123 117.307 350.566 116.224L340.625 96.8785C339.065 93.8453 334.482 94.9542 334.482 98.3649V114.737C334.482 116.533 333.027 117.989 331.232 117.989H327.114C325.319 117.989 323.863 116.533 323.863 114.737V94.1072C322.621 94.1232 321.118 94.1485 319.612 94.1827C317.201 94.2374 314.834 94.3167 313.511 94.417C313.648 95.4016 313.758 96.3715 313.834 97.3272C313.93 98.4768 313.979 99.5601 313.979 100.574C313.979 103.271 313.641 105.746 312.959 107.992C312.324 110.19 311.39 112.092 310.146 113.685C308.904 115.274 307.408 116.522 305.661 117.421L305.647 117.429C303.885 118.284 301.911 118.705 299.741 118.705C297.717 118.705 295.743 118.333 293.822 117.594C291.921 116.863 290.207 115.91 288.686 114.733L288.677 114.724C287.2 113.543 285.986 112.183 285.044 110.646L285.035 110.631C284.128 109.069 283.666 107.436 283.666 105.742C283.666 103.014 284.152 100.572 285.147 98.4323L285.149 98.4259C286.176 96.2734 287.526 94.4054 289.198 92.8319L289.849 92.2412C291.175 91.0852 292.636 90.0821 294.231 89.23L295.039 88.815C296.978 87.8245 298.976 86.9881 301.033 86.307C300.627 85.0794 300.193 83.9379 299.724 82.8832L299.723 82.8719C299.171 81.5853 298.58 80.4973 297.953 79.6022L297.94 79.5878L297.93 79.5709C297.348 78.6307 296.738 77.9191 296.11 77.416C295.502 76.9302 294.923 76.7218 294.362 76.7218C293.539 76.7219 292.589 77.2195 291.515 78.5172C290.431 79.8265 289.351 81.5884 288.281 83.8206L288.28 83.827C287.21 86.0118 286.181 88.5548 285.198 91.4587C284.259 94.3208 283.393 97.2788 282.595 100.33L282.593 100.333C281.794 103.34 281.064 106.346 280.406 109.353L280.409 109.355C279.948 111.589 279.552 113.663 279.225 115.573C278.87 117.644 277.653 119.164 279.058 121.464C279.595 122.342 280.311 123.31 280.722 124.372C280.995 125.078 281.301 125.902 281.434 126.638C281.501 127.008 281.543 127.441 281.47 127.872C281.398 128.297 281.202 128.772 280.776 129.133L280.687 129.202L280.607 129.259C280.211 129.52 279.523 129.732 278.85 129.397L278.706 129.317C277.236 127.872 276.689 126.22 276.1 125.43C276.151 126.118 276.831 128.99 276.829 129.645C276.827 130.414 276.772 131.237 276.57 131.943C276.39 132.573 276.008 133.393 275.161 133.784L274.986 133.856L274.843 133.901C274.23 134.067 273.706 133.842 273.39 133.645L273.26 133.557C273.04 133.4 272.621 133.074 272.364 132.567L272.316 132.463C272.196 132.192 272.19 131.933 272.189 131.843C272.187 131.713 272.197 131.584 272.208 131.475C272.23 131.256 272.272 130.993 272.317 130.728C272.411 130.173 272.533 129.518 272.63 128.791C272.729 128.054 272.787 127.333 272.779 126.681C272.776 126.696 272.772 126.711 272.77 126.726C272.635 127.525 272.47 128.865 272.278 129.859C272.176 130.387 272.048 130.928 271.877 131.395C271.734 131.783 271.49 132.33 271.032 132.707L270.937 132.78L270.798 132.873C270.457 133.084 270.009 133.241 269.523 133.21C269.284 133.194 268.938 133.128 268.612 132.906C268.238 132.651 267.946 132.221 267.919 131.666C267.881 130.871 268.027 130.013 268.399 128.975C268.508 128.67 269.271 126.628 269.378 126.336C269.159 126.774 268.254 128.989 267.99 129.409C267.725 129.831 267.367 130.335 266.941 130.669C266.727 130.835 266.369 131.062 265.896 131.092C265.41 131.123 264.992 130.936 264.688 130.651L264.565 130.523C264.262 130.176 264.192 129.771 264.183 129.515C264.173 129.225 264.231 128.922 264.36 128.641C264.64 128.033 264.998 127.338 265.356 126.646L265.382 126.597C265.737 125.91 266.096 125.216 266.413 124.551C266.546 124.272 266.667 124.004 266.776 123.75C266.402 124.363 265.968 125.112 265.604 125.722C265.409 126.048 265.215 126.368 265.078 126.562C265.043 126.611 264.991 126.683 264.929 126.754C264.9 126.787 264.84 126.852 264.757 126.919C264.734 126.937 264.458 127.179 264.026 127.206C263.739 127.224 263.395 127.144 263.108 126.892C262.855 126.668 262.759 126.406 262.721 126.264C262.654 126.007 262.686 125.792 262.692 125.749C262.711 125.608 262.75 125.484 262.768 125.43L262.776 125.406C262.887 125.067 263.145 124.278 264.535 122.318C265.636 120.764 266.985 119.337 267.889 117.664C268.567 116.476 268.791 115.894 269.043 114.527C269.218 113.582 269.398 112.549 269.585 111.428L269.589 111.414C270.014 109.147 270.486 106.691 271.005 104.047L271.007 104.034C271.575 101.383 272.215 98.6377 272.925 95.7991C273.637 92.9041 274.444 90.0796 275.346 87.3254L275.348 87.3166C276.3 84.5071 277.374 81.8603 278.567 79.3783C279.766 76.8379 281.114 74.6197 282.616 72.7306L282.618 72.7282C284.175 70.7818 285.915 69.2346 287.839 68.0997C289.795 66.8989 291.975 66.3012 294.362 66.3011ZM296.933 100.281C298.561 98.9794 300.629 97.8286 303.151 96.8344C303.269 98.2176 303.314 99.5517 303.276 100.836L303.274 100.858C303.274 102.419 303.137 103.777 302.87 104.938C302.603 106.048 302.216 106.887 301.733 107.49C301.301 108.031 300.772 108.282 300.095 108.282C297.856 108.281 296.439 107.798 295.646 107.005C294.749 106.108 294.368 105.241 294.368 104.396C294.368 103.052 295.13 101.679 296.925 100.288L296.933 100.281Z" fill="#EAE6F4"/>
<path fill-rule="evenodd" clip-rule="evenodd" d="M294.15 49.3105C296.414 49.3108 298.301 49.9687 299.733 51.3427C301.223 52.7259 301.945 54.5798 301.945 56.8219C301.945 59.187 301.233 61.1476 299.759 62.6269L299.76 62.6293C298.33 64.1119 296.434 64.8298 294.15 64.83C291.781 64.83 289.814 64.1176 288.334 62.6374C286.854 61.1571 286.142 59.1915 286.142 56.8219C286.142 54.5797 286.864 52.7259 288.353 51.3427C289.836 49.9661 291.795 49.3105 294.15 49.3105ZM292.39 55.2745C292.798 54.8661 293.36 54.6357 294.15 54.6357C294.738 54.6359 295.184 54.7988 295.532 55.1092L295.697 55.2745C296.047 55.6241 296.267 56.1526 296.267 56.9631C296.267 57.8197 296.044 58.4427 295.663 58.8981C295.296 59.2925 294.816 59.5046 294.15 59.5049C293.374 59.5049 292.819 59.2815 292.413 58.8869C292.038 58.4324 291.82 57.8126 291.82 56.9631C291.82 56.1526 292.04 55.6241 292.39 55.2745Z" fill="#EAE6F4"/>
<path fill-rule="evenodd" clip-rule="evenodd" d="M64.6894 65.4103C67.945 65.4104 70.9399 65.9833 73.6655 67.139C76.4261 68.2886 78.7916 69.8909 80.7594 71.9473C82.7794 73.9584 84.342 76.3932 85.4473 79.2403L85.8534 80.3053C86.7401 82.8168 87.1824 85.5142 87.1825 88.3937C87.1825 90.2311 87.0326 91.998 86.7322 93.6931C86.4949 95.2944 86.1384 96.7884 85.6736 98.1763C86.971 101.039 87.9865 104.132 88.713 107.457L88.9353 108.457C89.4301 110.8 89.7361 113.212 89.8519 115.693C89.9835 118.517 91.7786 120.075 93.3696 122.319C94.758 124.278 95.0161 125.067 95.1269 125.406L95.1352 125.432C95.1531 125.486 95.193 125.61 95.2123 125.75L95.2126 125.753C95.2192 125.801 95.2483 126.013 95.1818 126.265C95.1443 126.406 95.0492 126.669 94.7957 126.893C94.5096 127.145 94.1651 127.226 93.8776 127.208C93.4609 127.182 93.1891 126.955 93.1505 126.923L93.1472 126.92C93.0644 126.853 93.0046 126.787 92.9755 126.754C92.9129 126.684 92.8606 126.611 92.8262 126.563C92.6888 126.369 92.4946 126.049 92.2997 125.722C91.9365 125.113 91.5017 124.364 91.128 123.751C91.2369 124.004 91.3571 124.273 91.4899 124.551C91.7991 125.2 92.1487 125.876 92.4958 126.547L92.5477 126.647C92.9059 127.339 93.2635 128.034 93.5429 128.642C93.672 128.923 93.731 129.226 93.7211 129.516C93.7123 129.773 93.6417 130.178 93.3391 130.524L93.2155 130.653C92.911 130.938 92.4937 131.124 92.0076 131.093C91.5353 131.063 91.1759 130.836 90.9626 130.669C90.5362 130.336 90.1782 129.832 89.9128 129.41C89.649 128.99 88.744 126.774 88.5252 126.336C88.6324 126.628 89.395 128.671 89.5043 128.976C89.8761 130.014 90.023 130.871 89.9851 131.667C89.9586 132.222 89.6662 132.653 89.2917 132.908C88.9658 133.129 88.6199 133.195 88.3807 133.21C87.8953 133.242 87.4462 133.085 87.1054 132.874L86.9658 132.782L86.8719 132.709C86.4137 132.332 86.1692 131.784 86.0268 131.396C85.8552 130.928 85.7276 130.388 85.6255 129.86C85.4334 128.866 85.268 127.526 85.1335 126.727C85.131 126.712 85.1273 126.697 85.1247 126.682C85.1164 127.334 85.1751 128.056 85.2739 128.792C85.3715 129.52 85.4932 130.174 85.587 130.729C85.6317 130.994 85.6736 131.257 85.6961 131.476C85.7073 131.585 85.7165 131.714 85.7146 131.844C85.7132 131.934 85.7079 132.193 85.5886 132.465L85.5396 132.568C85.2831 133.075 84.8639 133.401 84.6439 133.558L84.5139 133.645C84.1978 133.843 83.6733 134.068 83.0604 133.902L82.9176 133.857L82.7426 133.785C81.8958 133.393 81.5142 132.574 81.3341 131.944C81.1324 131.238 81.0763 130.415 81.0741 129.645C81.0723 128.99 81.7529 126.12 81.8036 125.432C81.2148 126.221 80.6683 127.873 79.1976 129.318L79.054 129.399C78.3808 129.734 77.6923 129.521 77.2963 129.26L77.2161 129.203L77.1278 129.133C76.7017 128.773 76.5065 128.298 76.4344 127.873C76.3613 127.443 76.4027 127.009 76.4697 126.639C76.6031 125.903 76.9089 125.078 77.1824 124.372C77.5934 123.311 78.3086 122.343 78.8453 121.465C80.3308 119.034 79.2213 115.584 78.8421 112.866C78.6383 111.405 78.38 109.98 78.074 108.589C75.3204 110.346 72.3036 111.232 69.0306 111.232C67.2062 111.232 65.4299 110.953 63.7055 110.398L63.687 110.392C62.0045 109.782 60.474 108.893 59.0987 107.727L59.0898 107.721C57.7552 106.545 56.6801 105.115 55.8643 103.44L55.8563 103.423C55.0839 101.68 54.7047 99.7184 54.7046 97.5519C54.7046 95.437 55.0589 93.5058 55.7776 91.7677C56.4906 90.0436 57.462 88.5611 58.6966 87.3319C59.9218 86.0633 61.3294 85.0938 62.9165 84.4297C64.5556 83.7158 66.2524 83.3567 68.0001 83.3567C69.5417 83.3567 71.1022 83.6389 72.6775 84.1954C73.9169 84.62 75.1059 85.2315 76.2474 86.0277C76.0508 84.8327 75.7274 83.7187 75.2778 82.6857C74.6684 81.2857 73.8537 80.1044 72.834 79.1351L72.8228 79.1263C71.797 78.1051 70.6088 77.3159 69.2545 76.7579L69.2336 76.7499C67.9402 76.152 66.526 75.8479 64.984 75.8478C63.1563 75.8478 61.4514 76.2431 59.8643 77.0332L59.8539 77.0396C58.253 77.7897 56.8389 78.8209 55.6123 80.136C54.4398 81.4454 53.4945 82.9923 52.7832 84.7837L52.7848 84.7853C52.1246 86.5225 51.7928 88.408 51.7928 90.4451V115.721C51.7924 117.287 50.5206 118.557 48.9541 118.557H43.9284C42.3622 118.557 41.0925 117.287 41.092 115.721V90.4451C41.0921 86.8673 41.6659 83.5491 42.8208 80.4995L42.8232 80.4931C44.025 77.4519 45.6824 74.8014 47.7944 72.5484C49.9078 70.294 52.4002 68.5404 55.2656 67.2891L55.268 67.2875C58.1878 66.0345 61.3311 65.4103 64.6894 65.4103ZM66.3748 94.8384C67.0164 94.0719 67.7467 93.7229 68.5884 93.7228C69.5629 93.7228 70.6058 94.2065 71.7208 95.3167L72.1462 95.7421C73.0446 96.6938 73.887 97.9096 74.6791 99.393C74.2474 99.8938 73.7476 100.243 73.1767 100.457C72.4694 100.673 71.5354 100.794 70.3556 100.794C68.4797 100.794 67.2202 100.501 66.4784 100.011C65.7787 99.5016 65.4029 98.7383 65.4029 97.6233C65.4031 96.4717 65.7337 95.5624 66.3636 94.8512L66.3748 94.8384Z" fill="#EAE6F4"/>
</g>
</g>
<defs>
<filter id="filter0_d_1069_741" x="-12" y="-8" width="478" height="184" filterUnits="userSpaceOnUse" color-interpolation-filters="sRGB">
<feFlood flood-opacity="0" result="BackgroundImageFix"/>
<feColorMatrix in="SourceAlpha" type="matrix" values="0 0 0 0 0 0 0 0 0 0 0 0 0 0 0 0 0 0 127 0" result="hardAlpha"/>
<feOffset dy="4"/>
<feGaussianBlur stdDeviation="6"/>
<feComposite in2="hardAlpha" operator="out"/>
<feColorMatrix type="matrix" values="0 0 0 0 0 0 0 0 0 0 0 0 0 0 0 0 0 0 0.25 0"/>
<feBlend mode="normal" in2="BackgroundImageFix" result="effect1_dropShadow_1069_741"/>
<feBlend mode="normal" in="SourceGraphic" in2="effect1_dropShadow_1069_741" result="shape"/>
</filter>
<filter id="filter1_g_1069_741" x="40.2702" y="48.4887" width="370.649" height="86.2931" filterUnits="userSpaceOnUse" color-interpolation-filters="sRGB">
<feFlood flood-opacity="0" result="BackgroundImageFix"/>
<feBlend mode="normal" in="SourceGraphic" in2="BackgroundImageFix" result="shape"/>
<feTurbulence type="fractalNoise" baseFrequency="0.081663243472576141 0.081663243472576141" numOctaves="3" seed="2991" result="displacementX" />
<feTurbulence type="fractalNoise" baseFrequency="0.081663243472576141 0.081663243472576141" numOctaves="3" seed="2992" result="displacementY" />
<feColorMatrix in="displacementX" type="matrix" values="0 0 0 1 0  0 0 0 0 0  0 0 0 0 0  0 0 0 0 1" result="displacementXRed" />
<feColorMatrix in="displacementY" type="matrix" values="0 0 0 0 0  0 0 0 1 0  0 0 0 0 0  0 0 0 0 1" />
<feComposite in="displacementXRed" operator="arithmetic" k1="0" k2="1" k3="1" k4="0"/>
<feDisplacementMap in="shape" scale="1.6436793804168701" xChannelSelector="R" yChannelSelector="G" width="100%" height="100%" />
<feColorMatrix type="matrix" values="0 0 0 0 0  0 0 0 0 0  0 0 0 0 0  0 0 0 1 0" />
<feComponentTransfer result="sourceDisplacedAlpha">
<feFuncA type="gamma" exponent="0.2" />
</feComponentTransfer>
<feColorMatrix in="shape" type="matrix" values="0 0 0 0 0  0 0 0 0 0  0 0 0 0 0  0 0 0 1 0" />
<feComponentTransfer result="inputSourceAlpha">
<feFuncA type="gamma" exponent="0.2" />
</feComponentTransfer>
<feComposite in="sourceDisplacedAlpha" operator="arithmetic" k1="1" k2="0" k3="0" k4="0" result="displacementAlphasMultiplied"/>
<feComposite in="displacementAlphasMultiplied"  operator="arithmetic" k1="0" k2="0" k3="-0.5" k4="0.5" result="centeringAdjustment"/>
<feComposite in="displacementX" in2="displacementAlphasMultiplied" operator="arithmetic" k1="1" k2="0" k3="0" k4="0" />
<feComposite in="centeringAdjustment" operator="arithmetic" k1="0" k2="1" k3="1" k4="0" />
<feColorMatrix  type="matrix" values="0 0 0 1 0  0 0 0 0 0  0 0 0 0 0  0 0 0 0 1" result="displacementXFinal" />
<feComposite in="displacementY" in2="displacementAlphasMultiplied" operator="arithmetic" k1="1" k2="0" k3="0" k4="0" />
<feComposite in="centeringAdjustment" operator="arithmetic" k1="0" k2="1" k3="1" k4="0" />
<feColorMatrix  type="matrix" values="0 0 0 0 0  0 0 0 1 0  0 0 0 0 0  0 0 0 0 1" result="displacementYFinal" />
<feComposite in="displacementXFinal" in2="displacementYFinal" operator="arithmetic" k1="0" k2="1" k3="1" k4="0" />
<feComposite in2="displacementAlphasMultiplied" operator="in" result="displacementMap" />
<feFlood flood-color="rgb(127, 127, 127)" flood-opacity="1"/>
<feComposite in2="displacementAlphasMultiplied" operator="out" />
<feComposite in2="displacementMap" operator="over" result="displacementMapWithBg"/>
<feDisplacementMap in="shape" scale="1.6436793804168701" xChannelSelector="R" yChannelSelector="G" width="100%" height="100%" result="displacedImage" />
<feColorMatrix in="shape" type="matrix" values="1 0 0 0 0  0 1 0 0 0  0 0 1 0 0  0 0 0 127 0" result="imageOpaque" />
<feDisplacementMap in="imageOpaque" in2="displacementMapWithBg" scale="1.6436793804168701" xChannelSelector="R" yChannelSelector="G" width="100%" height="100%" result="displacedImageOpaque" />
<feColorMatrix in="displacedImage" type="matrix" values="0 0 0 1 0  0 0 0 0 0  0 0 0 0 0  0 0 0 127 0" result="displacedImageRed" />
<feColorMatrix in="shape" type="matrix" values="0 0 0 1 0  0 0 0 0 0  0 0 0 0 0  0 0 0 127 0" />
<feComposite in="displacedImageRed"  operator="atop" result="transparencyRedMap"/>
<feColorMatrix in="transparencyRedMap" type="matrix" values="0 0 0 0 0  0 0 0 0 0  0 0 0 0 0  1 0 0 0 0" result="transparencyAlphaMap" />
<feComposite in="displacedImageOpaque" in2="imageOpaque" operator="over" />
<feComposite in2="transparencyAlphaMap" operator="in" result="effect1_texture_1069_741"/>
</filter>
</defs>
</svg>
