<svg width="217" height="50" viewBox="0 0 217 50" fill="none" xmlns="http://www.w3.org/2000/svg">
<path d="M34.9829 11.1872C36.0349 11.1872 36.8881 12.0403 36.8881 13.0924V28.9846C36.8881 31.0588 37.3303 32.5525 38.2153 33.4652C39.1003 34.3779 40.4283 34.8342 42.1983 34.8342C43.9406 34.8342 45.2128 34.3778 46.0149 33.4652C46.8446 32.5525 47.2593 31.0588 47.2593 28.9846V13.0924C47.2593 12.0404 48.1121 11.1873 49.164 11.1872H51.5772C52.6293 11.1872 53.4819 12.0403 53.4819 13.0924V29.2752C53.4819 30.9622 53.2333 32.5109 52.7356 33.9214C52.2378 35.3042 51.5048 36.4935 50.5369 37.4891C49.5966 38.4847 48.4072 39.2593 46.9691 39.8125C45.5586 40.3656 43.9129 40.6421 42.0323 40.6421C40.1793 40.6421 38.5336 40.3656 37.0955 39.8125C35.685 39.2593 34.4957 38.4848 33.5277 37.4891C32.5874 36.4935 31.8683 35.3042 31.3704 33.9214C30.9003 32.5109 30.665 30.9622 30.665 29.2752V13.0924C30.665 12.0403 31.5181 11.1872 32.5702 11.1872H34.9829Z" fill="#7D0E61"/>
<path d="M62.486 11.2051C63.1999 11.2051 63.8541 11.6043 64.1805 12.2393L70.0062 23.5756C70.9198 25.3531 73.6054 24.7032 73.6054 22.7046V13.1103C73.6054 12.0582 74.4586 11.2051 75.5107 11.2051H77.9233C78.9754 11.2051 79.8285 12.0582 79.8285 13.1103V38.3399C79.8285 39.392 78.9754 40.2451 77.9233 40.2451H73.1088C72.3949 40.2451 71.7411 39.8458 71.4147 39.2109L65.5886 27.8746C64.6749 26.0972 61.9898 26.747 61.9898 28.7457V38.3399C61.9898 39.392 61.1366 40.2451 60.0846 40.2451H57.6719C56.6198 40.2451 55.7667 39.392 55.7667 38.3399V13.1103C55.7667 12.0582 56.6198 11.2051 57.6719 11.2051H62.486Z" fill="#7D0E61"/>
<path fill-rule="evenodd" clip-rule="evenodd" d="M94.6423 11.2051C96.0804 11.2051 97.4217 11.5786 98.6662 12.3253C99.9107 13.072 100.989 14.0953 101.902 15.395C102.842 16.6949 103.575 18.2024 104.101 19.917C104.654 21.6318 104.931 23.471 104.931 25.4347C104.931 27.3983 104.654 29.2788 104.101 31.0765C103.575 32.8465 102.842 34.4231 101.902 35.8059C100.989 37.1611 99.9108 38.24 98.6662 39.0421C97.4217 39.8441 96.0804 40.2451 94.6423 40.2451H84.0185C82.9664 40.2451 82.1133 39.392 82.1133 38.3399V13.1103C82.1133 12.0582 82.9664 11.2051 84.0185 11.2051H94.6423ZM90.2411 17.0134C89.1891 17.0134 88.3364 17.8661 88.3364 18.9181V32.5321C88.3364 33.5841 89.1891 34.4368 90.2411 34.4368H92.8166C93.8121 34.4368 94.6696 34.2019 95.3887 33.7318C96.1354 33.2617 96.7442 32.6254 97.2144 31.8233C97.7121 30.9937 98.0853 30.0258 98.3342 28.9197C98.5831 27.7857 98.7076 26.5548 98.7076 25.2273C98.7076 22.4616 98.1958 20.4012 97.1725 19.046C96.1492 17.6909 94.6972 17.0134 92.8166 17.0134H90.2411Z" fill="#7D0E61"/>
<path d="M119.124 10.3754C120.728 10.3755 122.194 10.6245 123.521 11.1223C124.849 11.5925 126.025 12.2283 127.048 13.0303C128.099 13.8324 128.984 14.7731 129.703 15.8517C130.052 16.3618 130.365 16.8849 130.642 17.4211C131.127 18.3571 130.597 19.4562 129.604 19.8084L127.335 20.6131C126.349 20.9627 125.273 20.441 124.724 19.5507C124.697 19.5069 124.669 19.4633 124.641 19.4195C124.282 18.8111 123.84 18.2717 123.314 17.8016C122.816 17.3315 122.235 16.9442 121.572 16.6399C120.908 16.3357 120.175 16.1833 119.373 16.1833C118.626 16.1833 117.893 16.3216 117.174 16.5981C116.483 16.8747 115.847 17.2899 115.266 17.843C114.713 18.3685 114.27 19.0185 113.938 19.7929C113.606 20.5396 113.44 21.4108 113.44 22.4064V27.8408C113.44 28.864 113.606 29.7906 113.938 30.6203C114.27 31.45 114.726 32.1417 115.307 32.6948C115.888 33.248 116.566 33.6764 117.34 33.9806C118.115 34.2848 118.93 34.4368 119.788 34.4368C120.534 34.4368 121.226 34.3677 121.862 34.2294C122.526 34.0911 123.106 33.8838 123.604 33.6072C124.102 33.3306 124.489 32.985 124.766 32.5702C125.042 32.1553 125.181 31.6852 125.181 31.1597C125.181 30.2204 124.419 29.4587 123.48 29.4586H119.079C118.027 29.4586 117.174 28.6059 117.174 27.5539V25.9708C117.174 24.9188 118.027 24.0657 119.079 24.0656H129.499C130.551 24.0656 131.404 24.9188 131.404 25.9708V31.1597C131.404 32.5702 131.086 33.8424 130.45 34.9763C129.813 36.0826 128.956 37.037 127.877 37.839C126.827 38.6134 125.596 39.2081 124.185 39.6229C122.802 40.0378 121.336 40.2451 119.788 40.2451C117.879 40.2451 116.151 39.9544 114.602 39.3737C113.081 38.7929 111.767 37.9771 110.661 36.9262C109.555 35.8752 108.697 34.6168 108.089 33.151C107.508 31.6575 107.218 30.0119 107.218 28.2142V21.9497C107.218 20.2075 107.508 18.6312 108.089 17.2208C108.697 15.8103 109.527 14.5931 110.578 13.5698C111.656 12.5465 112.915 11.7582 114.353 11.2051C115.819 10.652 117.409 10.3754 119.124 10.3754Z" fill="#7D0E61"/>
<path d="M203.956 10.3754C205.56 10.3754 207.026 10.6245 208.354 11.1223C209.681 11.5924 210.856 12.2284 211.88 13.0303C212.93 13.8324 213.816 14.7731 214.535 15.8517C214.884 16.3618 215.197 16.885 215.475 17.4211C215.959 18.357 215.429 19.4562 214.436 19.8084L212.167 20.6131C211.181 20.9627 210.105 20.4411 209.556 19.5507C209.529 19.5069 209.501 19.4632 209.473 19.4195C209.114 18.811 208.671 18.2718 208.146 17.8016C207.648 17.3315 207.067 16.9442 206.404 16.6399C205.74 16.3357 205.007 16.1833 204.205 16.1833C203.458 16.1833 202.725 16.3215 202.006 16.5981C201.315 16.8747 200.679 17.2899 200.098 17.843C199.545 18.3685 199.102 19.0185 198.77 19.7929C198.438 20.5396 198.273 21.4108 198.273 22.4064V27.8408C198.273 28.864 198.438 29.7906 198.77 30.6203C199.102 31.45 199.558 32.1417 200.139 32.6948C200.72 33.2479 201.398 33.6764 202.172 33.9806C202.946 34.2849 203.763 34.4368 204.62 34.4368C205.367 34.4368 206.058 34.3677 206.694 34.2294C207.358 34.0911 207.939 33.8838 208.436 33.6072C208.934 33.3307 209.322 32.985 209.598 32.5702C209.875 32.1554 210.013 31.6852 210.013 31.1597C210.013 30.2204 209.251 29.4586 208.312 29.4586H203.911C202.859 29.4586 202.006 28.606 202.006 27.5539V25.9708C202.006 24.9188 202.859 24.0656 203.911 24.0656H214.331C215.383 24.0657 216.236 24.9188 216.236 25.9708V31.1597C216.236 32.5702 215.917 33.8424 215.281 34.9763C214.645 36.0825 213.788 37.037 212.71 37.839C211.659 38.6134 210.428 39.2081 209.017 39.6229C207.634 40.0378 206.169 40.2451 204.62 40.2451C202.712 40.2451 200.983 39.9544 199.434 39.3737C197.913 38.7929 196.599 37.9771 195.493 36.9262C194.387 35.8752 193.529 34.6168 192.921 33.151C192.34 31.6575 192.049 30.0119 192.049 28.2142V21.9497C192.05 20.2075 192.34 18.6312 192.921 17.2208C193.529 15.8103 194.359 14.5931 195.41 13.5698C196.488 12.5465 197.747 11.7582 199.185 11.2051C200.651 10.6519 202.241 10.3755 203.956 10.3754Z" fill="#7D0E61"/>
<path fill-rule="evenodd" clip-rule="evenodd" d="M148.415 9.9564C149.676 9.95641 150.83 10.2656 151.866 10.8876C152.911 11.4976 153.834 12.3217 154.637 13.3544C155.459 14.3487 156.179 15.4933 156.799 16.7871L157.026 17.265C157.499 18.2837 157.908 19.3381 158.256 20.4273C158.911 20.3841 160.147 20.3486 161.338 20.3229L164.637 20.2547C165.002 20.2268 165.358 20.206 165.703 20.1922V13.1103C165.703 12.0583 166.556 11.2052 167.608 11.2051H172.422C173.136 11.2051 173.79 11.6043 174.117 12.2393L179.942 23.5756C180.856 25.3531 183.542 24.7032 183.542 22.7046V13.1103C183.542 12.0583 184.394 11.2052 185.446 11.2051H187.86C188.912 11.2051 189.764 12.0582 189.764 13.1103V38.3399C189.764 39.392 188.912 40.2451 187.86 40.2451H183.045C182.331 40.2451 181.677 39.8459 181.35 39.2109L175.525 27.8746C174.611 26.0972 171.926 26.747 171.926 28.7457V38.3399C171.926 39.392 171.073 40.2451 170.021 40.2451H167.608C166.556 40.245 165.703 39.3919 165.703 38.3399V26.2507C164.975 26.2601 164.094 26.2749 163.212 26.2949C161.799 26.327 160.411 26.3734 159.636 26.4322C159.717 27.0092 159.781 27.5775 159.826 28.1375C159.882 28.8112 159.911 29.446 159.911 30.0399C159.911 31.6209 159.713 33.071 159.313 34.387C158.941 35.675 158.393 36.7898 157.664 37.7229C156.937 38.6541 156.06 39.3857 155.036 39.9122L155.028 39.9169C153.996 40.418 152.839 40.6646 151.567 40.6646C150.381 40.6646 149.224 40.4466 148.099 40.0137C146.985 39.5853 145.98 39.0272 145.089 38.3371L145.084 38.3319C144.218 37.6397 143.507 36.8432 142.955 35.9423L142.949 35.9334C142.418 35.018 142.147 34.0613 142.147 33.0687C142.147 31.47 142.432 30.0388 143.015 28.7852L143.016 28.7814C143.618 27.52 144.409 26.4254 145.389 25.5034L145.771 25.1572C146.547 24.4798 147.404 23.8919 148.338 23.3926L148.812 23.1495C149.948 22.569 151.119 22.0789 152.324 21.6798C152.087 20.9604 151.832 20.2915 151.557 19.6734L151.557 19.6668C151.233 18.9129 150.887 18.2753 150.519 17.7508L150.512 17.7423L150.506 17.7325C150.165 17.1815 149.808 16.7645 149.439 16.4697C149.083 16.185 148.744 16.0629 148.415 16.0629C147.933 16.0629 147.376 16.3546 146.747 17.115C146.112 17.8822 145.479 18.9147 144.852 20.2227L144.851 20.2265C144.224 21.5068 143.621 22.997 143.045 24.6987C142.495 26.3758 141.987 28.1092 141.52 29.8974L141.518 29.8988C141.05 31.6609 140.623 33.4228 140.237 35.1846L140.239 35.1856C139.968 36.4951 139.736 37.7101 139.545 38.8295C139.337 40.0429 138.624 40.934 139.447 42.2816C139.762 42.7962 140.181 43.3636 140.422 43.9855C140.582 44.3992 140.761 44.8825 140.84 45.3136C140.879 45.5302 140.903 45.7842 140.86 46.0365C140.818 46.2855 140.704 46.5642 140.454 46.7754L140.402 46.8163L140.355 46.8497C140.123 47.0026 139.72 47.1269 139.325 46.9306L139.241 46.8835C138.379 46.0366 138.059 45.0685 137.714 44.6058C137.744 45.0091 138.142 46.6918 138.141 47.0754C138.14 47.5265 138.107 48.0086 137.989 48.4224C137.884 48.7916 137.66 49.2717 137.164 49.5013L137.061 49.5431L136.977 49.5699C136.618 49.667 136.311 49.535 136.126 49.4194L136.05 49.3682C135.921 49.276 135.675 49.0848 135.525 48.7878L135.496 48.7271C135.426 48.568 135.423 48.4167 135.422 48.3636C135.421 48.2876 135.426 48.2121 135.433 48.1482C135.446 48.0196 135.471 47.8654 135.497 47.7103C135.552 47.3852 135.623 47.0013 135.68 46.575C135.738 46.1434 135.772 45.7207 135.767 45.339C135.766 45.3478 135.764 45.3565 135.762 45.3654C135.683 45.8336 135.587 46.6187 135.474 47.201C135.414 47.5104 135.339 47.8273 135.239 48.1011C135.155 48.3283 135.012 48.6491 134.744 48.8701L134.688 48.9129L134.607 48.9675C134.407 49.091 134.144 49.1828 133.86 49.1645C133.72 49.1555 133.517 49.1166 133.326 48.9867C133.107 48.8374 132.935 48.585 132.92 48.2601C132.897 47.7938 132.983 47.2915 133.201 46.6832C133.265 46.5045 133.712 45.3076 133.775 45.1363C133.646 45.393 133.116 46.691 132.962 46.9371C132.806 47.1845 132.596 47.4801 132.346 47.6755C132.221 47.7732 132.011 47.9062 131.734 47.9238C131.45 47.942 131.205 47.8323 131.026 47.6652L130.954 47.5899C130.777 47.3867 130.736 47.1495 130.73 46.9992C130.725 46.8293 130.759 46.6521 130.834 46.4875C130.998 46.131 131.208 45.724 131.418 45.3183L131.433 45.2895C131.641 44.8867 131.852 44.4803 132.037 44.0904C132.115 43.927 132.186 43.7698 132.25 43.6215C132.031 43.9804 131.776 44.4196 131.563 44.7765C131.449 44.9681 131.335 45.1552 131.255 45.269C131.235 45.2975 131.204 45.34 131.167 45.3814C131.15 45.4006 131.115 45.4388 131.067 45.4782C131.053 45.489 130.892 45.6306 130.639 45.6466C130.47 45.6572 130.268 45.6103 130.101 45.4623C129.952 45.331 129.896 45.1774 129.874 45.0945C129.834 44.944 129.853 44.8179 129.857 44.7925C129.868 44.71 129.891 44.6376 129.901 44.6058L129.906 44.5915C129.971 44.3932 130.122 43.9307 130.936 42.782C131.582 41.8713 132.372 41.0354 132.902 40.0551C133.3 39.3589 133.431 39.0174 133.579 38.2167C133.681 37.6631 133.787 37.0573 133.896 36.4008L133.898 36.3924C134.147 35.0638 134.424 33.6247 134.728 32.0754L134.729 32.0679C135.062 30.5143 135.437 28.9055 135.853 27.2421C136.27 25.5456 136.743 23.8905 137.272 22.2766L137.273 22.2714C137.831 20.625 138.46 19.074 139.159 17.6196C139.862 16.1309 140.652 14.8311 141.532 13.724L141.533 13.7226C142.446 12.5821 143.465 11.6754 144.593 11.0104C145.739 10.3067 147.016 9.95642 148.415 9.9564ZM149.922 29.8687C150.876 29.1057 152.088 28.4314 153.566 27.8488C153.634 28.6593 153.661 29.4411 153.639 30.1937L153.638 30.2064C153.638 31.1215 153.557 31.9173 153.401 32.5975C153.244 33.2481 153.017 33.7398 152.735 34.093C152.481 34.4097 152.171 34.5568 151.775 34.5568C150.463 34.5567 149.632 34.2731 149.168 33.809C148.642 33.2829 148.419 32.7751 148.419 32.28C148.419 31.492 148.865 30.6875 149.917 29.8725L149.922 29.8687Z" fill="#7D0E61"/>
<path fill-rule="evenodd" clip-rule="evenodd" d="M148.291 0C149.618 0.000130087 150.723 0.385665 151.563 1.19082C152.436 2.0014 152.859 3.08775 152.859 4.40161C152.859 5.78756 152.442 6.93648 151.578 7.80334L151.579 7.80475C150.741 8.67352 149.629 9.09419 148.291 9.09433C146.902 9.09433 145.75 8.67689 144.883 7.80945C144.015 6.94201 143.598 5.79023 143.598 4.40161C143.598 3.08772 144.021 2.00141 144.894 1.19082C145.763 0.384155 146.911 0 148.291 0ZM147.259 3.49485C147.499 3.25555 147.828 3.12049 148.291 3.12049C148.636 3.12061 148.897 3.2161 149.101 3.39797L149.197 3.49485C149.402 3.6997 149.531 4.00943 149.531 4.48438C149.531 4.98635 149.401 5.35138 149.178 5.61829C148.963 5.84937 148.681 5.9737 148.291 5.97384C147.836 5.97384 147.511 5.84291 147.273 5.61171C147.053 5.34539 146.925 4.98218 146.925 4.48438C146.925 4.00939 147.054 3.6997 147.259 3.49485Z" fill="#7D0E61"/>
<path fill-rule="evenodd" clip-rule="evenodd" d="M13.828 9.43436C15.7357 9.43443 17.4907 9.77017 19.0879 10.4474C20.7056 11.121 22.0918 12.06 23.2449 13.265C24.4286 14.4435 25.3443 15.8703 25.992 17.5387L26.23 18.1628C26.7496 19.6345 27.0088 21.2152 27.0088 22.9026C27.0088 23.9793 26.921 25.0147 26.745 26.008C26.6059 26.9464 26.397 27.8218 26.1246 28.6351C26.8849 30.3127 27.4799 32.1251 27.9057 34.0733L28.036 34.6598C28.3259 36.0327 28.5052 37.4462 28.573 38.9001C28.6502 40.5549 29.7021 41.4679 30.6344 42.7829C31.4481 43.9306 31.5993 44.3932 31.6642 44.5918L31.6691 44.6068C31.6795 44.6386 31.703 44.7109 31.7142 44.7935L31.7144 44.7947C31.7183 44.8231 31.7354 44.9471 31.6964 45.0949C31.6744 45.1779 31.6187 45.3315 31.4701 45.4627C31.3025 45.6108 31.1006 45.6581 30.9321 45.6476C30.6879 45.6321 30.5287 45.4992 30.506 45.4803L30.5041 45.4787C30.4556 45.4393 30.4205 45.4011 30.4035 45.3818C30.3668 45.3404 30.3362 45.2979 30.316 45.2694C30.2355 45.1557 30.1217 44.9685 30.0075 44.777C29.7946 44.42 29.5399 43.9808 29.3208 43.6219C29.3847 43.7702 29.4551 43.9274 29.5329 44.0908C29.7141 44.4712 29.919 44.867 30.1224 45.26L30.1528 45.3188C30.3627 45.7244 30.5723 46.1315 30.736 46.488C30.8116 46.6527 30.8462 46.8301 30.8404 47.0002C30.8352 47.1505 30.7939 47.3877 30.6165 47.5909L30.5441 47.6661C30.3657 47.8331 30.1211 47.9424 29.8363 47.9243C29.5595 47.9067 29.3489 47.7737 29.224 47.676C28.9741 47.4806 28.7643 47.1854 28.6088 46.9381C28.4542 46.6921 27.9239 45.3933 27.7956 45.1368C27.8585 45.3078 28.3053 46.5047 28.3694 46.6836C28.5872 47.292 28.6734 47.7943 28.6511 48.2606C28.6356 48.5856 28.4643 48.8383 28.2448 48.9877C28.0538 49.1175 27.8511 49.1559 27.711 49.165C27.4265 49.1832 27.1633 49.0915 26.9637 48.9679L26.8818 48.9138L26.8268 48.871C26.5583 48.6499 26.415 48.3288 26.3316 48.1016C26.231 47.8278 26.1562 47.5108 26.0964 47.2015C25.9838 46.6191 25.887 45.834 25.8081 45.3658C25.8066 45.357 25.8045 45.3482 25.8029 45.3395C25.7981 45.7212 25.8325 46.1443 25.8904 46.5759C25.9476 47.0022 26.0189 47.3857 26.0738 47.7108C26.1 47.8659 26.1246 48.02 26.1378 48.1486C26.1443 48.2125 26.1498 48.288 26.1486 48.364C26.1478 48.4172 26.1447 48.5689 26.0748 48.7281L26.0461 48.7887C25.8958 49.0856 25.6501 49.2764 25.5212 49.3686L25.445 49.4199C25.2598 49.5354 24.9524 49.6675 24.5933 49.5704L24.5096 49.544L24.4071 49.5017C23.9108 49.2722 23.6872 48.792 23.5817 48.4228C23.4635 48.0091 23.4306 47.527 23.4293 47.0759C23.4283 46.6921 23.8271 45.0102 23.8568 44.6068C23.5118 45.0695 23.1915 46.0371 22.3297 46.884L22.2455 46.9315C21.8511 47.1279 21.4476 47.0031 21.2156 46.8501L21.1685 46.8167L21.1168 46.7758C20.8671 46.5647 20.7527 46.2864 20.7105 46.0374C20.6677 45.7851 20.6919 45.5307 20.7311 45.3141C20.8093 44.8829 20.9885 44.3997 21.1488 43.986C21.3896 43.3641 21.8088 42.7967 22.1233 42.282C22.9937 40.8575 22.3436 38.836 22.1214 37.2432C22.002 36.3872 21.8506 35.5521 21.6713 34.7369C20.0577 35.7665 18.2899 36.2856 16.3719 36.2856C15.3028 36.2856 14.2619 36.1225 13.2514 35.797L13.2406 35.7932C12.2546 35.4362 11.3577 34.9153 10.5518 34.2318L10.5466 34.228C9.76456 33.5392 9.13454 32.7011 8.65648 31.7194L8.65177 31.7095C8.19917 30.6881 7.97695 29.5388 7.97688 28.2692C7.97688 27.0299 8.18453 25.8983 8.60568 24.8797C9.02352 23.8694 9.59271 23.0007 10.3162 22.2803C11.0342 21.537 11.859 20.9688 12.7891 20.5797C13.7496 20.1613 14.7438 19.9509 15.768 19.9509C16.6714 19.9509 17.5858 20.1163 18.5089 20.4424C19.2352 20.6912 19.932 21.0495 20.6009 21.5161C20.4857 20.8158 20.2962 20.163 20.0327 19.5577C19.6756 18.7373 19.1982 18.045 18.6007 17.4771L18.5941 17.4719C17.993 16.8735 17.2967 16.411 16.5031 16.084L16.4909 16.0793C15.7329 15.729 14.9042 15.5508 14.0006 15.5507C12.9296 15.5507 11.9305 15.7824 11.0005 16.2454L10.9944 16.2491C10.0562 16.6887 9.22757 17.2929 8.5088 18.0636C7.82175 18.8309 7.26781 19.7374 6.85097 20.7871L6.85191 20.7881C6.46503 21.806 6.27062 22.911 6.27061 24.1047V38.916C6.27036 39.834 5.52512 40.5781 4.60713 40.5781H1.66207C0.744291 40.5779 0.000251604 39.8338 0 38.916V24.1047C1.38102e-05 22.0081 0.336289 20.0637 1.01304 18.2766L1.01445 18.2728C1.7187 16.4907 2.68992 14.9375 3.92754 13.6173C5.16601 12.2962 6.62651 11.2686 8.30563 10.5354L8.30704 10.5344C10.018 9.80014 11.86 9.43439 13.828 9.43436ZM14.8156 26.6791C15.1916 26.23 15.6195 26.0254 16.1127 26.0254C16.6838 26.0254 17.2949 26.3088 17.9483 26.9594L18.1976 27.2087C18.7241 27.7664 19.2177 28.4788 19.6819 29.3481C19.4289 29.6416 19.136 29.8463 18.8015 29.9717C18.387 30.0983 17.8397 30.1692 17.1483 30.1693C16.0491 30.1693 15.311 29.9976 14.8763 29.7103C14.4663 29.4118 14.2461 28.9645 14.2461 28.3111C14.2462 27.6362 14.4399 27.1034 14.809 26.6866L14.8156 26.6791Z" fill="#7D0E61"/>
</svg>
